<?xml version="1.0" encoding="UTF-8"?>
<!DOCTYPE svg PUBLIC "-//W3C//DTD SVG 1.1//EN" "http://www.w3.org/Graphics/SVG/1.1/DTD/svg11.dtd">
<svg xmlns="http://www.w3.org/2000/svg" version="1.1" width="154px" height="154px" style="shape-rendering:geometricPrecision; text-rendering:geometricPrecision; image-rendering:optimizeQuality; fill-rule:evenodd; clip-rule:evenodd" xmlns:xlink="http://www.w3.org/1999/xlink">
<g><path style="opacity:1" fill="#53595d" d="M 31.5,-0.5 C 43.8333,-0.5 56.1667,-0.5 68.5,-0.5C 67.8333,0.166667 67.1667,0.833333 66.5,1.5C 63.5718,1.56513 60.9052,2.2318 58.5,3.5C 56.7162,3.89254 55.0495,4.5592 53.5,5.5C 52.609,6.10978 51.609,6.44312 50.5,6.5C 49.5,6.83333 48.8333,7.5 48.5,8.5C 45.4517,10.8815 42.7851,13.5482 40.5,16.5C 37.2927,14.4528 34.9593,11.6194 33.5,8C 33.6448,7.22797 33.9781,6.5613 34.5,6C 32.6508,4.90698 30.9842,3.57365 29.5,2C 31.935,1.92524 32.6016,1.0919 31.5,-0.5 Z"/></g>
<g><path style="opacity:1" fill="#404040" d="M 68.5,-0.5 C 80.5,-0.5 92.5,-0.5 104.5,-0.5C 105.37,1.59877 106.703,1.93211 108.5,0.5C 111.028,1.51741 111.028,2.68408 108.5,4C 109.257,5.51221 110.257,6.84555 111.5,8C 111.167,8.33333 110.833,8.66667 110.5,9C 112.131,12.5692 114.131,15.9026 116.5,19C 116.167,19.3333 115.833,19.6667 115.5,20C 116.446,23.2314 118.28,25.7314 121,27.5C 123.217,31.4828 124.551,35.4828 125,39.5C 125.718,38.5494 126.551,38.3828 127.5,39C 126.316,40.1455 126.316,41.3121 127.5,42.5C 125.427,43.128 123.427,43.9614 121.5,45C 124.803,47.7617 128.136,49.7617 131.5,51C 131.272,51.3988 130.938,51.5654 130.5,51.5C 127.38,55.1968 123.714,55.8635 119.5,53.5C 118.914,53.7093 118.414,54.0426 118,54.5C 117.623,53.0577 116.79,52.0577 115.5,51.5C 115.5,50.1667 115.5,48.8333 115.5,47.5C 119.307,45.2253 121.641,41.8919 122.5,37.5C 122.766,32.6889 120.766,29.3555 116.5,27.5C 114.492,20.33 110.159,15.1634 103.5,12C 96.1183,8.66305 88.7849,5.32972 81.5,2C 76.5111,1.50074 71.5111,1.33407 66.5,1.5C 67.1667,0.833333 67.8333,0.166667 68.5,-0.5 Z"/></g>
<g><path style="opacity:1" fill="#3b3b35" d="M 104.5,-0.5 C 120.833,-0.5 137.167,-0.5 153.5,-0.5C 153.5,23.5 153.5,47.5 153.5,71.5C 151.737,68.1363 150.07,64.6363 148.5,61C 149.479,59.2215 149.146,57.5548 147.5,56C 147.833,55.6667 148.167,55.3333 148.5,55C 146.887,52.7724 146.22,50.2724 146.5,47.5C 143.402,47.5875 143.068,47.0875 145.5,46C 144.449,44.6152 143.116,43.6152 141.5,43C 141.833,42.6667 142.167,42.3333 142.5,42C 141.182,41.3058 140.349,40.4725 140,39.5C 138.85,40.4239 137.85,40.4239 137,39.5C 135.686,40.3128 134.519,41.3128 133.5,42.5C 131.338,42.154 129.338,42.154 127.5,42.5C 126.316,41.3121 126.316,40.1455 127.5,39C 126.551,38.3828 125.718,38.5494 125,39.5C 124.551,35.4828 123.217,31.4828 121,27.5C 118.28,25.7314 116.446,23.2314 115.5,20C 115.833,19.6667 116.167,19.3333 116.5,19C 114.131,15.9026 112.131,12.5692 110.5,9C 110.833,8.66667 111.167,8.33333 111.5,8C 110.257,6.84555 109.257,5.51221 108.5,4C 111.028,2.68408 111.028,1.51741 108.5,0.5C 106.703,1.93211 105.37,1.59877 104.5,-0.5 Z"/></g>
<g><path style="opacity:1" fill="#5e646a" d="M -0.5,-0.5 C 10.1667,-0.5 20.8333,-0.5 31.5,-0.5C 32.6016,1.0919 31.935,1.92524 29.5,2C 30.9842,3.57365 32.6508,4.90698 34.5,6C 33.9781,6.5613 33.6448,7.22797 33.5,8C 34.9593,11.6194 37.2927,14.4528 40.5,16.5C 40.5,16.8333 40.5,17.1667 40.5,17.5C 36.2428,20.4557 35.5761,24.1223 38.5,28.5C 38.5466,30.0377 37.8799,31.0377 36.5,31.5C 34.5082,31.6715 32.8415,31.0049 31.5,29.5C 30.0159,31.2818 29.0159,33.2818 28.5,35.5C 25.101,35.6242 22.101,34.7909 19.5,33C 20.5,32.6667 21.5,32.3333 22.5,32C 21,31.1667 19.8333,30 19,28.5C 17.1431,30.7655 15.4764,30.4322 14,27.5C 13.0546,27.9054 12.3879,28.572 12,29.5C 11.5488,27.0712 10.7155,26.9045 9.5,29C 9.83333,29.3333 10.1667,29.6667 10.5,30C 9.45104,30.4922 8.45104,30.3256 7.5,29.5C 4.26398,31.8766 2.09732,30.8766 1,26.5C 0.76791,27.7375 0.26791,28.7375 -0.5,29.5C -0.5,19.5 -0.5,9.5 -0.5,-0.5 Z"/></g>
<g><path style="opacity:1" fill="#cacbc5" d="M 66.5,1.5 C 71.5111,1.33407 76.5111,1.50074 81.5,2C 88.7849,5.32972 96.1183,8.66305 103.5,12C 110.159,15.1634 114.492,20.33 116.5,27.5C 120.766,29.3555 122.766,32.6889 122.5,37.5C 120.887,37.0557 119.72,36.0557 119,34.5C 118.667,35.1667 118.333,35.8333 118,36.5C 115.61,29.3805 111.943,23.0472 107,17.5C 106.517,18.448 106.351,19.448 106.5,20.5C 105.833,20.8333 105.167,21.1667 104.5,21.5C 102.833,21.5 101.167,21.5 99.5,21.5C 99.1583,20.6618 98.4916,20.3284 97.5,20.5C 95.9217,19.9344 94.5884,18.9344 93.5,17.5C 92.8995,15.2753 92.5661,13.1086 92.5,11C 91.0039,10.4926 89.8373,10.9926 89,12.5C 88.0846,10.0197 86.5846,9.35308 84.5,10.5C 82.8211,8.89554 80.8211,8.22888 78.5,8.5C 79.545,11.3851 81.545,13.5518 84.5,15C 83.1667,16.3333 83.1667,17.6667 84.5,19C 82.5049,19.9236 82.1716,21.0903 83.5,22.5C 84.1667,22.8333 84.8333,23.1667 85.5,23.5C 86.01,26.5394 86.6766,29.5394 87.5,32.5C 85.4842,30.751 83.8175,28.751 82.5,26.5C 80.4008,25.1851 80.0674,23.5184 81.5,21.5C 81.6602,19.8008 81.4935,18.1341 81,16.5C 77.6253,13.2381 75.1253,9.90478 73.5,6.5C 69.9002,5.75373 66.2335,5.9204 62.5,7C 60.3395,7.9959 58.6728,9.4959 57.5,11.5C 56.0222,11.762 54.6888,11.4287 53.5,10.5C 55.5798,8.42676 57.2464,6.09343 58.5,3.5C 60.9052,2.2318 63.5718,1.56513 66.5,1.5 Z"/></g>
<g><path style="opacity:1" fill="#7b6542" d="M 69.5,8.5 C 69.5,8.83333 69.5,9.16667 69.5,9.5C 71.1073,12.7154 73.7739,14.0487 77.5,13.5C 77.9926,15.8056 78.3259,18.139 78.5,20.5C 77.5837,20.9817 76.5837,21.315 75.5,21.5C 73.2383,20.5331 70.905,19.8664 68.5,19.5C 73.9679,17.2608 73.6345,15.9275 67.5,15.5C 66.9898,12.6122 67.6565,10.2789 69.5,8.5 Z"/></g>
<g><path style="opacity:1" fill="#a7987b" d="M 73.5,6.5 C 75.1253,9.90478 77.6253,13.2381 81,16.5C 81.4935,18.1341 81.6602,19.8008 81.5,21.5C 80.209,21.7373 79.209,21.404 78.5,20.5C 78.3259,18.139 77.9926,15.8056 77.5,13.5C 73.7739,14.0487 71.1073,12.7154 69.5,9.5C 70.8717,8.48837 72.205,7.48837 73.5,6.5 Z"/></g>
<g><path style="opacity:1" fill="#999488" d="M 73.5,6.5 C 72.205,7.48837 70.8717,8.48837 69.5,9.5C 69.5,9.16667 69.5,8.83333 69.5,8.5C 68.4583,7.20891 67.2917,7.20891 66,8.5C 66.8059,11.171 66.6393,13.8377 65.5,16.5C 65.1667,16.5 64.8333,16.5 64.5,16.5C 63.5702,12.9074 61.2368,11.2407 57.5,11.5C 58.6728,9.4959 60.3395,7.9959 62.5,7C 66.2335,5.9204 69.9002,5.75373 73.5,6.5 Z"/></g>
<g><path style="opacity:1" fill="#918b7d" d="M 57.5,13.5 C 53.758,18.3173 51.0914,23.6506 49.5,29.5C 49.3347,25.8183 49.5014,22.1516 50,18.5C 50.972,16.6951 52.1387,15.0284 53.5,13.5C 54.9948,12.2947 56.3281,12.2947 57.5,13.5 Z"/></g>
<g><path style="opacity:1" fill="#a19f94" d="M 97.5,20.5 C 97.1667,21.5 96.5,22.1667 95.5,22.5C 93.5379,20.9827 91.2046,20.3161 88.5,20.5C 86.3603,20.5561 84.6936,21.2227 83.5,22.5C 82.1716,21.0903 82.5049,19.9236 84.5,19C 83.1667,17.6667 83.1667,16.3333 84.5,15C 81.545,13.5518 79.545,11.3851 78.5,8.5C 80.8211,8.22888 82.8211,8.89554 84.5,10.5C 86.5846,9.35308 88.0846,10.0197 89,12.5C 89.8373,10.9926 91.0039,10.4926 92.5,11C 92.5661,13.1086 92.8995,15.2753 93.5,17.5C 94.5884,18.9344 95.9217,19.9344 97.5,20.5 Z"/></g>
<g><path style="opacity:1" fill="#978f7e" d="M 53.5,5.5 C 51.7089,11.7428 49.3756,17.7428 46.5,23.5C 45.559,28.0704 45.2256,32.737 45.5,37.5C 44.3503,32.6842 44.1837,27.6842 45,22.5C 46.7292,17.0143 48.5625,11.6809 50.5,6.5C 51.609,6.44312 52.609,6.10978 53.5,5.5 Z"/></g>
<g><path style="opacity:1" fill="#827967" d="M 69.5,8.5 C 67.6565,10.2789 66.9898,12.6122 67.5,15.5C 73.6345,15.9275 73.9679,17.2608 68.5,19.5C 67.1001,18.9002 66.1001,17.9002 65.5,16.5C 66.6393,13.8377 66.8059,11.171 66,8.5C 67.2917,7.20891 68.4583,7.20891 69.5,8.5 Z"/></g>
<g><path style="opacity:1" fill="#36240f" d="M 57.5,13.5 C 57.3284,14.4916 57.6618,15.1583 58.5,15.5C 60.4751,19.1138 62.8084,22.4472 65.5,25.5C 66.5511,26.2223 67.2178,27.2223 67.5,28.5C 64.6829,29.0951 62.3495,30.4284 60.5,32.5C 58.4842,34.249 56.8175,36.249 55.5,38.5C 55.1667,38.5 54.8333,38.5 54.5,38.5C 53.3646,36.7868 51.698,36.1201 49.5,36.5C 49.5,34.1667 49.5,31.8333 49.5,29.5C 51.0914,23.6506 53.758,18.3173 57.5,13.5 Z"/></g>
<g><path style="opacity:1" fill="#b1b1aa" d="M 58.5,3.5 C 57.2464,6.09343 55.5798,8.42676 53.5,10.5C 54.6888,11.4287 56.0222,11.762 57.5,11.5C 61.2368,11.2407 63.5702,12.9074 64.5,16.5C 62.8523,15.1902 61.1856,13.8569 59.5,12.5C 58.6143,13.325 58.281,14.325 58.5,15.5C 57.6618,15.1583 57.3284,14.4916 57.5,13.5C 56.3281,12.2947 54.9948,12.2947 53.5,13.5C 52.1387,15.0284 50.972,16.6951 50,18.5C 49.5014,22.1516 49.3347,25.8183 49.5,29.5C 49.5,31.8333 49.5,34.1667 49.5,36.5C 48.4076,32.1844 47.4076,27.8511 46.5,23.5C 49.3756,17.7428 51.7089,11.7428 53.5,5.5C 55.0495,4.5592 56.7162,3.89254 58.5,3.5 Z"/></g>
<g><path style="opacity:1" fill="#5c4c32" d="M 48.5,8.5 C 46.3719,11.1444 44.8719,14.1444 44,17.5C 43.5003,24.8258 43.3337,32.1591 43.5,39.5C 42.7364,34.6228 41.4031,29.7895 39.5,25C 40.2272,22.876 40.8938,20.7094 41.5,18.5C 41.3764,17.8933 41.0431,17.56 40.5,17.5C 40.5,17.1667 40.5,16.8333 40.5,16.5C 42.7851,13.5482 45.4517,10.8815 48.5,8.5 Z"/></g>
<g><path style="opacity:1" fill="#786f5d" d="M 95.5,22.5 C 94.8333,23.1667 94.1667,23.8333 93.5,24.5C 93.0133,23.5266 92.5133,22.5266 92,21.5C 89.5397,22.755 88.373,24.755 88.5,27.5C 87.9779,25.7809 86.9779,24.4475 85.5,23.5C 84.8333,23.1667 84.1667,22.8333 83.5,22.5C 84.6936,21.2227 86.3603,20.5561 88.5,20.5C 91.2046,20.3161 93.5379,20.9827 95.5,22.5 Z"/></g>
<g><path style="opacity:1" fill="#726348" d="M 50.5,6.5 C 48.5625,11.6809 46.7292,17.0143 45,22.5C 44.1837,27.6842 44.3503,32.6842 45.5,37.5C 45.2053,39.7354 45.5386,41.7354 46.5,43.5C 46.5,43.8333 46.5,44.1667 46.5,44.5C 46.8782,46.921 47.5448,49.2543 48.5,51.5C 46.8333,50.5 45.5,49.1667 44.5,47.5C 45.0967,47.2648 45.4301,46.7648 45.5,46C 43.9972,44.0786 43.3305,41.912 43.5,39.5C 43.3337,32.1591 43.5003,24.8258 44,17.5C 44.8719,14.1444 46.3719,11.1444 48.5,8.5C 48.8333,7.5 49.5,6.83333 50.5,6.5 Z"/></g>
<g><path style="opacity:1" fill="#c7cece" d="M 64.5,16.5 C 64.8333,16.5 65.1667,16.5 65.5,16.5C 65.5,17.8333 65.5,19.1667 65.5,20.5C 67.5922,20.5614 69.0922,21.5614 70,23.5C 70.677,21.311 71.8437,20.9776 73.5,22.5C 74.7759,23.6136 74.7759,24.6136 73.5,25.5C 70.976,25.043 68.3093,25.043 65.5,25.5C 62.8084,22.4472 60.4751,19.1138 58.5,15.5C 58.281,14.325 58.6143,13.325 59.5,12.5C 61.1856,13.8569 62.8523,15.1902 64.5,16.5 Z"/></g>
<g><path style="opacity:1" fill="#989890" d="M 65.5,16.5 C 66.1001,17.9002 67.1001,18.9002 68.5,19.5C 70.905,19.8664 73.2383,20.5331 75.5,21.5C 76.5837,21.315 77.5837,20.9817 78.5,20.5C 79.209,21.404 80.209,21.7373 81.5,21.5C 80.0674,23.5184 80.4008,25.1851 82.5,26.5C 81.6236,26.3691 80.9569,26.7025 80.5,27.5C 81.1272,28.4168 81.4606,29.4168 81.5,30.5C 78.755,28.8248 76.0883,27.1581 73.5,25.5C 74.7759,24.6136 74.7759,23.6136 73.5,22.5C 71.8437,20.9776 70.677,21.311 70,23.5C 69.0922,21.5614 67.5922,20.5614 65.5,20.5C 65.5,19.1667 65.5,17.8333 65.5,16.5 Z"/></g>
<g><path style="opacity:1" fill="#9c9481" d="M 99.5,21.5 C 101.167,21.5 102.833,21.5 104.5,21.5C 103.5,23.1667 102.167,24.5 100.5,25.5C 97.3937,25.4116 97.0603,24.0783 99.5,21.5 Z"/></g>
<g><path style="opacity:1" fill="#e3ebef" d="M 106.5,20.5 C 109.584,25.0085 111.917,30.0085 113.5,35.5C 114.31,42.8642 111.977,44.1975 106.5,39.5C 104.957,36.914 103.291,34.414 101.5,32C 100.552,31.5172 99.552,31.3505 98.5,31.5C 98.6287,29.7839 98.962,28.1172 99.5,26.5C 100.167,26.5 100.5,26.1667 100.5,25.5C 102.167,24.5 103.5,23.1667 104.5,21.5C 105.167,21.1667 105.833,20.8333 106.5,20.5 Z"/></g>
<g><path style="opacity:1" fill="#5f4d32" d="M 93.5,24.5 C 94.0435,26.8309 94.3769,29.1643 94.5,31.5C 90.5582,33.1209 88.5582,31.7875 88.5,27.5C 88.373,24.755 89.5397,22.755 92,21.5C 92.5133,22.5266 93.0133,23.5266 93.5,24.5 Z"/></g>
<g><path style="opacity:1" fill="#9f9175" d="M 122.5,37.5 C 121.641,41.8919 119.307,45.2253 115.5,47.5C 114.167,47.5 113.5,46.8333 113.5,45.5C 115.042,44.8592 116.376,43.8592 117.5,42.5C 115.501,40.4818 114.167,38.1484 113.5,35.5C 111.917,30.0085 109.584,25.0085 106.5,20.5C 106.351,19.448 106.517,18.448 107,17.5C 111.943,23.0472 115.61,29.3805 118,36.5C 118.333,35.8333 118.667,35.1667 119,34.5C 119.72,36.0557 120.887,37.0557 122.5,37.5 Z"/></g>
<g><path style="opacity:1" fill="#493920" d="M 40.5,17.5 C 41.0431,17.56 41.3764,17.8933 41.5,18.5C 40.8938,20.7094 40.2272,22.876 39.5,25C 41.4031,29.7895 42.7364,34.6228 43.5,39.5C 43.3305,41.912 43.9972,44.0786 45.5,46C 45.4301,46.7648 45.0967,47.2648 44.5,47.5C 43.5084,47.3284 42.8417,47.6618 42.5,48.5C 40.4004,48.5228 38.5671,47.8561 37,46.5C 35.3333,47.5 33.6667,48.5 32,49.5C 31.2352,49.4301 30.7352,49.0967 30.5,48.5C 31.3369,45.1478 32.8369,42.1478 35,39.5C 35.3333,39.8333 35.6667,40.1667 36,40.5C 36.3742,39.5838 36.8742,38.7504 37.5,38C 34.9485,36.4842 35.2819,35.6509 38.5,35.5C 38.4729,33.8007 37.8062,32.4674 36.5,31.5C 37.8799,31.0377 38.5466,30.0377 38.5,28.5C 35.5761,24.1223 36.2428,20.4557 40.5,17.5 Z"/></g>
<g><path style="opacity:1" fill="#8b8577" d="M 71.5,29.5 C 71.0472,30.4584 70.3805,31.2917 69.5,32C 70.8333,32.6667 70.8333,33.3333 69.5,34C 70.1667,34.3333 70.8333,34.6667 71.5,35C 67.9289,34.3229 64.2622,33.4895 60.5,32.5C 62.3495,30.4284 64.6829,29.0951 67.5,28.5C 69.456,26.8249 70.7893,27.1582 71.5,29.5 Z"/></g>
<g><path style="opacity:1" fill="#514027" d="M 73.5,25.5 C 76.0883,27.1581 78.755,28.8248 81.5,30.5C 83.9266,32.5576 86.5932,34.3909 89.5,36C 88.6667,36.1667 87.8333,36.3333 87,36.5C 81.483,34.7841 76.3164,32.4508 71.5,29.5C 70.7893,27.1582 69.456,26.8249 67.5,28.5C 67.2178,27.2223 66.5511,26.2223 65.5,25.5C 68.3093,25.043 70.976,25.043 73.5,25.5 Z"/></g>
<g><path style="opacity:1" fill="#89877c" d="M 95.5,22.5 C 96.0894,26.9707 95.4228,30.9707 93.5,34.5C 91.2143,34.405 89.2143,33.7384 87.5,32.5C 86.6766,29.5394 86.01,26.5394 85.5,23.5C 86.9779,24.4475 87.9779,25.7809 88.5,27.5C 88.5582,31.7875 90.5582,33.1209 94.5,31.5C 94.3769,29.1643 94.0435,26.8309 93.5,24.5C 94.1667,23.8333 94.8333,23.1667 95.5,22.5 Z"/></g>
<g><path style="opacity:1" fill="#73736d" d="M 89.5,37.5 C 87.5615,39.1628 85.2282,39.8294 82.5,39.5C 82.1658,42.188 82.8325,44.5214 84.5,46.5C 78.8746,46.8918 74.0413,45.2251 70,41.5C 68.5603,42.1476 67.0603,42.4809 65.5,42.5C 65.5,43.5 65.5,44.5 65.5,45.5C 64.6588,44.0736 63.6588,42.7403 62.5,41.5C 68.0824,41.5749 72.7491,39.5749 76.5,35.5C 80.7438,36.7072 85.0771,37.3739 89.5,37.5 Z"/></g>
<g><path style="opacity:1" fill="#686152" d="M 82.5,26.5 C 83.8175,28.751 85.4842,30.751 87.5,32.5C 89.2143,33.7384 91.2143,34.405 93.5,34.5C 93.5,34.8333 93.5,35.1667 93.5,35.5C 92.1667,36.1667 90.8333,36.8333 89.5,37.5C 85.0771,37.3739 80.7438,36.7072 76.5,35.5C 72.7491,39.5749 68.0824,41.5749 62.5,41.5C 62.1499,38.9253 61.4833,36.9253 60.5,35.5C 59.3333,37.1667 58.1667,38.8333 57,40.5C 56.2828,39.9558 55.7828,39.2891 55.5,38.5C 56.8175,36.249 58.4842,34.249 60.5,32.5C 64.2622,33.4895 67.9289,34.3229 71.5,35C 70.8333,34.6667 70.1667,34.3333 69.5,34C 70.8333,33.3333 70.8333,32.6667 69.5,32C 70.3805,31.2917 71.0472,30.4584 71.5,29.5C 76.3164,32.4508 81.483,34.7841 87,36.5C 87.8333,36.3333 88.6667,36.1667 89.5,36C 86.5932,34.3909 83.9266,32.5576 81.5,30.5C 81.4606,29.4168 81.1272,28.4168 80.5,27.5C 80.9569,26.7025 81.6236,26.3691 82.5,26.5 Z"/></g>
<g><path style="opacity:1" fill="#cacdca" d="M 46.5,23.5 C 47.4076,27.8511 48.4076,32.1844 49.5,36.5C 49.5,38.1667 49.5,39.8333 49.5,41.5C 49.1788,43.0481 48.1788,43.7148 46.5,43.5C 45.5386,41.7354 45.2053,39.7354 45.5,37.5C 45.2256,32.737 45.559,28.0704 46.5,23.5 Z"/></g>
<g><path style="opacity:1" fill="#726750" d="M 26.5,36.5 C 26.5,38.8333 26.5,41.1667 26.5,43.5C 25.5,43.5 24.5,43.5 23.5,43.5C 22.0408,40.2488 23.0408,37.9155 26.5,36.5 Z"/></g>
<g><path style="opacity:1" fill="#594728" d="M 36.5,31.5 C 37.8062,32.4674 38.4729,33.8007 38.5,35.5C 35.2819,35.6509 34.9485,36.4842 37.5,38C 36.8742,38.7504 36.3742,39.5838 36,40.5C 35.6667,40.1667 35.3333,39.8333 35,39.5C 32.8369,42.1478 31.3369,45.1478 30.5,48.5C 27.7816,49.0427 25.115,49.7094 22.5,50.5C 22.1984,47.9407 22.5318,45.6074 23.5,43.5C 24.5,43.5 25.5,43.5 26.5,43.5C 26.5,41.1667 26.5,38.8333 26.5,36.5C 27.4916,36.6716 28.1583,36.3382 28.5,35.5C 29.0159,33.2818 30.0159,31.2818 31.5,29.5C 32.8415,31.0049 34.5082,31.6715 36.5,31.5 Z"/></g>
<g><path style="opacity:1" fill="#b7c0c4" d="M 97.5,20.5 C 98.4916,20.3284 99.1583,20.6618 99.5,21.5C 97.0603,24.0783 97.3937,25.4116 100.5,25.5C 100.5,26.1667 100.167,26.5 99.5,26.5C 98.603,27.5981 97.7697,27.5981 97,26.5C 96.5162,28.9129 96.8495,31.2462 98,33.5C 102.691,37.7944 105.524,43.1277 106.5,49.5C 108.336,50.0276 110.003,50.6942 111.5,51.5C 109.473,51.6621 107.473,51.4955 105.5,51C 104.529,49.5187 103.196,48.6854 101.5,48.5C 100.833,48.1667 100.167,47.8333 99.5,47.5C 99.3893,46.8826 99.056,46.3826 98.5,46C 95.131,45.1664 91.9644,44.6664 89,44.5C 89.756,41.2114 91.256,38.2114 93.5,35.5C 93.5,35.1667 93.5,34.8333 93.5,34.5C 95.4228,30.9707 96.0894,26.9707 95.5,22.5C 96.5,22.1667 97.1667,21.5 97.5,20.5 Z"/></g>
<g><path style="opacity:1" fill="#8a8e8e" d="M 93.5,35.5 C 91.256,38.2114 89.756,41.2114 89,44.5C 91.9644,44.6664 95.131,45.1664 98.5,46C 99.056,46.3826 99.3893,46.8826 99.5,47.5C 97.5454,46.6765 95.5454,46.5099 93.5,47C 94.5742,47.7387 95.2409,48.7387 95.5,50C 94.6777,52.4339 94.3444,54.9339 94.5,57.5C 95.8333,57.5 97.1667,57.5 98.5,57.5C 96.7051,59.9163 94.7051,59.9163 92.5,57.5C 93.3382,57.1583 93.6716,56.4916 93.5,55.5C 93.5,54.5 93.5,53.5 93.5,52.5C 91.8333,52.5 90.1667,52.5 88.5,52.5C 88.3775,49.7079 87.0442,47.7079 84.5,46.5C 82.8325,44.5214 82.1658,42.188 82.5,39.5C 85.2282,39.8294 87.5615,39.1628 89.5,37.5C 90.8333,36.8333 92.1667,36.1667 93.5,35.5 Z"/></g>
<g><path style="opacity:1" fill="#d4dada" d="M 99.5,26.5 C 98.962,28.1172 98.6287,29.7839 98.5,31.5C 99.552,31.3505 100.552,31.5172 101.5,32C 103.291,34.414 104.957,36.914 106.5,39.5C 111.977,44.1975 114.31,42.8642 113.5,35.5C 114.167,38.1484 115.501,40.4818 117.5,42.5C 116.376,43.8592 115.042,44.8592 113.5,45.5C 112.833,47.5 112.167,49.5 111.5,51.5C 110.003,50.6942 108.336,50.0276 106.5,49.5C 105.524,43.1277 102.691,37.7944 98,33.5C 96.8495,31.2462 96.5162,28.9129 97,26.5C 97.7697,27.5981 98.603,27.5981 99.5,26.5 Z"/></g>
<g><path style="opacity:1" fill="#40413a" d="M 153.5,71.5 C 153.5,75.8333 153.5,80.1667 153.5,84.5C 151.5,83.357 150.833,81.857 151.5,80C 149.699,79.6827 149.366,79.016 150.5,78C 149.624,76.4152 148.291,75.4152 146.5,75C 146.833,74.6667 147.167,74.3333 147.5,74C 146.636,71.9287 145.303,70.262 143.5,69C 144.956,68.5774 145.456,67.7441 145,66.5C 144.667,66.8333 144.333,67.1667 144,67.5C 143.167,66 142,64.8333 140.5,64C 140.959,62.0573 139.959,60.724 137.5,60C 137.833,59.6667 138.167,59.3333 138.5,59C 136.183,57.218 134.516,55.0513 133.5,52.5C 132.209,52.7373 131.209,52.404 130.5,51.5C 130.938,51.5654 131.272,51.3988 131.5,51C 128.136,49.7617 124.803,47.7617 121.5,45C 123.427,43.9614 125.427,43.128 127.5,42.5C 129.338,42.154 131.338,42.154 133.5,42.5C 134.519,41.3128 135.686,40.3128 137,39.5C 137.85,40.4239 138.85,40.4239 140,39.5C 140.349,40.4725 141.182,41.3058 142.5,42C 142.167,42.3333 141.833,42.6667 141.5,43C 143.116,43.6152 144.449,44.6152 145.5,46C 143.068,47.0875 143.402,47.5875 146.5,47.5C 146.22,50.2724 146.887,52.7724 148.5,55C 148.167,55.3333 147.833,55.6667 147.5,56C 149.146,57.5548 149.479,59.2215 148.5,61C 150.07,64.6363 151.737,68.1363 153.5,71.5 Z"/></g>
<g><path style="opacity:1" fill="#bfbfb7" d="M 62.5,41.5 C 63.6588,42.7403 64.6588,44.0736 65.5,45.5C 65.5,46.5 65.5,47.5 65.5,48.5C 66.0482,50.6264 66.7148,52.6264 67.5,54.5C 68.7425,58.4841 68.7425,62.4841 67.5,66.5C 66.8333,63.5 66.1667,60.5 65.5,57.5C 64.0333,52.2899 61.8667,47.2899 59,42.5C 60.3556,48.0891 61.8556,53.7557 63.5,59.5C 62.8826,59.6107 62.3826,59.944 62,60.5C 61.7645,58.8807 60.9311,57.8807 59.5,57.5C 58.5892,50.8463 55.9225,45.0129 51.5,40C 52.5018,38.8437 53.5018,38.3437 54.5,38.5C 54.8333,38.5 55.1667,38.5 55.5,38.5C 55.7828,39.2891 56.2828,39.9558 57,40.5C 58.1667,38.8333 59.3333,37.1667 60.5,35.5C 61.4833,36.9253 62.1499,38.9253 62.5,41.5 Z"/></g>
<g><path style="opacity:1" fill="#d4dada" d="M 46.5,44.5 C 48.4305,44.7706 49.7638,45.7706 50.5,47.5C 52.4157,52.6721 53.7491,58.0055 54.5,63.5C 53.0689,63.1193 52.2355,62.1193 52,60.5C 51.7679,61.7375 51.2679,62.7375 50.5,63.5C 50.5,62.5 50.5,61.5 50.5,60.5C 51.8891,57.0554 51.2225,54.0554 48.5,51.5C 47.5448,49.2543 46.8782,46.921 46.5,44.5 Z"/></g>
<g><path style="opacity:1" fill="#6e6a5f" d="M 84.5,46.5 C 87.0442,47.7079 88.3775,49.7079 88.5,52.5C 87.1153,53.3023 87.282,53.9689 89,54.5C 90.4397,55.1476 91.9397,55.4809 93.5,55.5C 93.6716,56.4916 93.3382,57.1583 92.5,57.5C 92.1667,57.5 91.8333,57.5 91.5,57.5C 91.1667,57.5 90.8333,57.5 90.5,57.5C 89.1266,57.3433 87.7932,57.51 86.5,58C 87.7059,59.0177 87.3726,59.5177 85.5,59.5C 83.4227,58.6772 81.756,57.3439 80.5,55.5C 78.3125,53.3029 75.9792,51.1362 73.5,49C 71.9751,47.9914 70.3084,47.4914 68.5,47.5C 68.6495,46.448 68.4828,45.448 68,44.5C 67.8784,46.437 67.045,47.7703 65.5,48.5C 65.5,47.5 65.5,46.5 65.5,45.5C 65.5,44.5 65.5,43.5 65.5,42.5C 67.0603,42.4809 68.5603,42.1476 70,41.5C 74.0413,45.2251 78.8746,46.8918 84.5,46.5 Z"/></g>
<g><path style="opacity:1" fill="#3f3320" d="M 42.5,48.5 C 46.1711,51.8456 48.8378,55.8456 50.5,60.5C 50.5,61.5 50.5,62.5 50.5,63.5C 50.3586,72.3742 51.6919,72.3742 54.5,63.5C 54.8333,63.5 55.1667,63.5 55.5,63.5C 55.5,66.5 55.5,69.5 55.5,72.5C 54.7326,73.172 54.0659,74.0053 53.5,75C 54.7375,75.2321 55.7375,75.7321 56.5,76.5C 55.1667,76.5 53.8333,76.5 52.5,76.5C 52.815,80.3714 52.4816,84.0381 51.5,87.5C 49.4166,86.9711 47.5833,85.9711 46,84.5C 42.9133,80.2634 40.08,75.93 37.5,71.5C 38.6776,68.5227 38.6776,65.5227 37.5,62.5C 30.2742,61.9838 27.2742,57.9838 28.5,50.5C 26.2589,50.9539 24.2589,50.9539 22.5,50.5C 25.115,49.7094 27.7816,49.0427 30.5,48.5C 30.7352,49.0967 31.2352,49.4301 32,49.5C 33.6667,48.5 35.3333,47.5 37,46.5C 38.5671,47.8561 40.4004,48.5228 42.5,48.5 Z"/></g>
<g><path style="opacity:1" fill="#dadedd" d="M 65.5,57.5 C 65.8226,61.226 65.4892,64.8927 64.5,68.5C 63.5159,65.5719 63.1826,62.5719 63.5,59.5C 61.8556,53.7557 60.3556,48.0891 59,42.5C 61.8667,47.2899 64.0333,52.2899 65.5,57.5 Z"/></g>
<g><path style="opacity:1" fill="#918671" d="M 50.5,47.5 C 53.6948,52.2574 55.3615,57.5907 55.5,63.5C 55.1667,63.5 54.8333,63.5 54.5,63.5C 53.7491,58.0055 52.4157,52.6721 50.5,47.5 Z"/></g>
<g><path style="opacity:1" fill="#a6aaa7" d="M 113.5,45.5 C 113.5,46.8333 114.167,47.5 115.5,47.5C 115.5,48.8333 115.5,50.1667 115.5,51.5C 115.273,54.438 116.273,56.7713 118.5,58.5C 115.821,58.4754 114.488,57.142 114.5,54.5C 112.857,54.4802 111.524,55.1468 110.5,56.5C 108.315,51.5477 106.315,51.8811 104.5,57.5C 104.565,57.9382 104.399,58.2716 104,58.5C 102.846,56.0426 101.512,56.0426 100,58.5C 98.8634,62.4631 99.6967,65.7964 102.5,68.5C 103.391,69.1098 104.391,69.4431 105.5,69.5C 105.5,70.1667 105.5,70.8333 105.5,71.5C 104.833,71.8333 104.167,72.1667 103.5,72.5C 103.586,71.5041 103.252,70.6708 102.5,70C 99.854,69.5026 97.1873,69.3359 94.5,69.5C 94.821,68.1825 95.1543,66.8492 95.5,65.5C 94.7662,62.4208 93.4329,59.7542 91.5,57.5C 91.8333,57.5 92.1667,57.5 92.5,57.5C 94.7051,59.9163 96.7051,59.9163 98.5,57.5C 99.4584,57.0472 100.292,56.3805 101,55.5C 101.497,53.1902 101.663,50.8568 101.5,48.5C 103.196,48.6854 104.529,49.5187 105.5,51C 107.473,51.4955 109.473,51.6621 111.5,51.5C 112.167,49.5 112.833,47.5 113.5,45.5 Z"/></g>
<g><path style="opacity:1" fill="#b4bfc4" d="M 88.5,52.5 C 90.1667,52.5 91.8333,52.5 93.5,52.5C 93.5,53.5 93.5,54.5 93.5,55.5C 91.9397,55.4809 90.4397,55.1476 89,54.5C 87.282,53.9689 87.1153,53.3023 88.5,52.5 Z"/></g>
<g><path style="opacity:1" fill="#676e76" d="M 28.5,35.5 C 28.1583,36.3382 27.4916,36.6716 26.5,36.5C 23.0408,37.9155 22.0408,40.2488 23.5,43.5C 22.5318,45.6074 22.1984,47.9407 22.5,50.5C 24.2589,50.9539 26.2589,50.9539 28.5,50.5C 27.2742,57.9838 30.2742,61.9838 37.5,62.5C 38.6776,65.5227 38.6776,68.5227 37.5,71.5C 36.2101,70.9423 35.3768,69.9423 35,68.5C 33.3905,69.1466 31.8905,69.98 30.5,71C 30.6894,73.295 32.0228,75.295 34.5,77C 33.1667,78.6667 33.1667,80.3333 34.5,82C 33.842,83.9045 32.6753,85.4045 31,86.5C 31.5356,84.553 31.2022,82.553 30,80.5C 29.6667,82.1667 29.3333,83.8333 29,85.5C 28.6411,82.4557 27.9745,82.1224 27,84.5C 25.4933,83.4954 24.3267,82.162 23.5,80.5C 22.2638,79.7542 20.9305,79.4208 19.5,79.5C 19.6495,78.448 19.4828,77.448 19,76.5C 17.7827,77.3859 16.4493,78.3859 15,79.5C 14.5488,77.0712 13.7155,76.9045 12.5,79C 12.9574,79.414 13.2907,79.914 13.5,80.5C 12.3717,81.2621 11.2051,81.9288 10,82.5C 7.75282,80.9982 6.08616,78.9982 5,76.5C 4.66667,77.1667 4.33333,77.8333 4,78.5C 3.58138,77.3279 2.91471,76.3279 2,75.5C 1.23029,76.5981 0.396953,76.5981 -0.5,75.5C -0.5,60.1667 -0.5,44.8333 -0.5,29.5C 0.26791,28.7375 0.76791,27.7375 1,26.5C 2.09732,30.8766 4.26398,31.8766 7.5,29.5C 8.45104,30.3256 9.45104,30.4922 10.5,30C 10.1667,29.6667 9.83333,29.3333 9.5,29C 10.7155,26.9045 11.5488,27.0712 12,29.5C 12.3879,28.572 13.0546,27.9054 14,27.5C 15.4764,30.4322 17.1431,30.7655 19,28.5C 19.8333,30 21,31.1667 22.5,32C 21.5,32.3333 20.5,32.6667 19.5,33C 22.101,34.7909 25.101,35.6242 28.5,35.5 Z"/></g>
<g><path style="opacity:1" fill="#acada8" d="M 49.5,41.5 C 55.7078,48.9705 58.2078,57.6372 57,67.5C 56.79,65.9419 56.29,64.6085 55.5,63.5C 55.3615,57.5907 53.6948,52.2574 50.5,47.5C 49.7638,45.7706 48.4305,44.7706 46.5,44.5C 46.5,44.1667 46.5,43.8333 46.5,43.5C 48.1788,43.7148 49.1788,43.0481 49.5,41.5 Z"/></g>
<g><path style="opacity:1" fill="#898984" d="M 80.5,55.5 C 78.5,55.5 76.5,55.5 74.5,55.5C 74.5,56.8333 74.5,58.1667 74.5,59.5C 72.4662,58.4522 71.1329,56.7855 70.5,54.5C 69.3864,53.2241 68.3864,53.2241 67.5,54.5C 66.7148,52.6264 66.0482,50.6264 65.5,48.5C 67.045,47.7703 67.8784,46.437 68,44.5C 68.4828,45.448 68.6495,46.448 68.5,47.5C 70.3084,47.4914 71.9751,47.9914 73.5,49C 75.9792,51.1362 78.3125,53.3029 80.5,55.5 Z"/></g>
<g><path style="opacity:1" fill="#a09b8a" d="M 118.5,58.5 C 116.37,60.4395 114.036,61.1062 111.5,60.5C 110.811,59.2264 109.977,59.2264 109,60.5C 108.517,59.552 108.351,58.552 108.5,57.5C 107.167,57.5 105.833,57.5 104.5,57.5C 106.315,51.8811 108.315,51.5477 110.5,56.5C 111.524,55.1468 112.857,54.4802 114.5,54.5C 114.488,57.142 115.821,58.4754 118.5,58.5 Z"/></g>
<g><path style="opacity:1" fill="#b7b4aa" d="M 42.5,48.5 C 42.8417,47.6618 43.5084,47.3284 44.5,47.5C 45.5,49.1667 46.8333,50.5 48.5,51.5C 51.2225,54.0554 51.8891,57.0554 50.5,60.5C 48.8378,55.8456 46.1711,51.8456 42.5,48.5 Z"/></g>
<g><path style="opacity:1" fill="#766d5a" d="M 49.5,36.5 C 51.698,36.1201 53.3646,36.7868 54.5,38.5C 53.5018,38.3437 52.5018,38.8437 51.5,40C 55.9225,45.0129 58.5892,50.8463 59.5,57.5C 58.6762,61.3123 58.1762,65.3123 58,69.5C 57.1482,70.5707 56.3149,71.5707 55.5,72.5C 55.5,69.5 55.5,66.5 55.5,63.5C 56.29,64.6085 56.79,65.9419 57,67.5C 58.2078,57.6372 55.7078,48.9705 49.5,41.5C 49.5,39.8333 49.5,38.1667 49.5,36.5 Z"/></g>
<g><path style="opacity:1" fill="#484846" d="M 115.5,51.5 C 116.79,52.0577 117.623,53.0577 118,54.5C 118.414,54.0426 118.914,53.7093 119.5,53.5C 123.714,55.8635 127.38,55.1968 130.5,51.5C 131.209,52.404 132.209,52.7373 133.5,52.5C 134.516,55.0513 136.183,57.218 138.5,59C 138.167,59.3333 137.833,59.6667 137.5,60C 139.959,60.724 140.959,62.0573 140.5,64C 142,64.8333 143.167,66 144,67.5C 144.333,67.1667 144.667,66.8333 145,66.5C 145.456,67.7441 144.956,68.5774 143.5,69C 145.303,70.262 146.636,71.9287 147.5,74C 147.167,74.3333 146.833,74.6667 146.5,75C 148.291,75.4152 149.624,76.4152 150.5,78C 149.366,79.016 149.699,79.6827 151.5,80C 150.833,81.857 151.5,83.357 153.5,84.5C 153.5,91.5 153.5,98.5 153.5,105.5C 151.414,101.38 149.581,96.7132 148,91.5C 145.943,89.731 144.11,87.731 142.5,85.5C 143.303,82.9455 142.303,81.1122 139.5,80C 140.337,78.9887 140.67,77.8221 140.5,76.5C 139.448,76.6495 138.448,76.4828 137.5,76C 138.833,74.1598 138.666,73.6598 137,74.5C 134.751,68.9591 131.085,64.6258 126,61.5C 124.045,62.4533 122.378,63.7866 121,65.5C 119.075,61.8315 117.408,61.8315 116,65.5C 115.667,64.5 115.333,63.5 115,62.5C 114.014,63.1712 112.847,63.1712 111.5,62.5C 111.5,61.8333 111.5,61.1667 111.5,60.5C 114.036,61.1062 116.37,60.4395 118.5,58.5C 116.273,56.7713 115.273,54.438 115.5,51.5 Z"/></g>
<g><path style="opacity:1" fill="#757269" d="M 99.5,47.5 C 100.167,47.8333 100.833,48.1667 101.5,48.5C 101.663,50.8568 101.497,53.1902 101,55.5C 100.292,56.3805 99.4584,57.0472 98.5,57.5C 97.1667,57.5 95.8333,57.5 94.5,57.5C 94.3444,54.9339 94.6777,52.4339 95.5,50C 95.2409,48.7387 94.5742,47.7387 93.5,47C 95.5454,46.5099 97.5454,46.6765 99.5,47.5 Z"/></g>
<g><path style="opacity:1" fill="#dfe6e9" d="M 103.5,61.5 C 105.075,63.1137 105.741,65.1137 105.5,67.5C 105.5,67.8333 105.5,68.1667 105.5,68.5C 105.5,68.8333 105.5,69.1667 105.5,69.5C 104.391,69.4431 103.391,69.1098 102.5,68.5C 101.508,65.2214 101.341,61.8881 102,58.5C 102.232,59.7375 102.732,60.7375 103.5,61.5 Z"/></g>
<g><path style="opacity:1" fill="#c0c4c1" d="M 104.5,57.5 C 105.833,57.5 107.167,57.5 108.5,57.5C 108.351,58.552 108.517,59.552 109,60.5C 109.977,59.2264 110.811,59.2264 111.5,60.5C 111.5,61.1667 111.5,61.8333 111.5,62.5C 112.354,64.035 112.354,65.3684 111.5,66.5C 109.493,65.4814 108.16,63.8147 107.5,61.5C 106.042,60.218 104.708,60.218 103.5,61.5C 102.732,60.7375 102.232,59.7375 102,58.5C 101.341,61.8881 101.508,65.2214 102.5,68.5C 99.6967,65.7964 98.8634,62.4631 100,58.5C 101.512,56.0426 102.846,56.0426 104,58.5C 104.399,58.2716 104.565,57.9382 104.5,57.5 Z"/></g>
<g><path style="opacity:1" fill="#77756c" d="M 74.5,59.5 C 76.4273,62.7673 78.7606,65.7673 81.5,68.5C 81.3939,71.0786 82.0605,73.412 83.5,75.5C 81.4496,75.0388 79.4496,74.3721 77.5,73.5C 76.2888,72.7261 76.2888,71.8928 77.5,71C 76.3349,69.9164 75.0016,69.0831 73.5,68.5C 71.9704,71.1834 69.6371,71.1834 66.5,68.5C 66.8333,67.8333 67.1667,67.1667 67.5,66.5C 68.7425,62.4841 68.7425,58.4841 67.5,54.5C 68.3864,53.2241 69.3864,53.2241 70.5,54.5C 71.1329,56.7855 72.4662,58.4522 74.5,59.5 Z"/></g>
<g><path style="opacity:1" fill="#b6c0c4" d="M 90.5,57.5 C 90.8333,57.5 91.1667,57.5 91.5,57.5C 93.4329,59.7542 94.7662,62.4208 95.5,65.5C 95.1543,66.8492 94.821,68.1825 94.5,69.5C 94.281,70.675 94.6143,71.675 95.5,72.5C 97.4086,73.3482 99.4086,73.6816 101.5,73.5C 99.9586,74.6668 98.6252,76.0001 97.5,77.5C 94.1501,77.665 90.8168,77.4983 87.5,77C 86.4178,75.6703 85.7512,74.1703 85.5,72.5C 85.114,70.0634 83.9473,68.0634 82,66.5C 81.5045,64.5273 81.3379,62.5273 81.5,60.5C 84.1873,60.6641 86.854,60.4974 89.5,60C 89.1667,59.6667 88.8333,59.3333 88.5,59C 89.4158,58.7216 90.0825,58.2216 90.5,57.5 Z"/></g>
<g><path style="opacity:1" fill="#9c937c" d="M 111.5,66.5 C 109.735,67.4614 107.735,67.7947 105.5,67.5C 105.741,65.1137 105.075,63.1137 103.5,61.5C 104.708,60.218 106.042,60.218 107.5,61.5C 108.16,63.8147 109.493,65.4814 111.5,66.5 Z"/></g>
<g><path style="opacity:1" fill="#80796a" d="M 54.5,63.5 C 51.6919,72.3742 50.3586,72.3742 50.5,63.5C 51.2679,62.7375 51.7679,61.7375 52,60.5C 52.2355,62.1193 53.0689,63.1193 54.5,63.5 Z"/></g>
<g><path style="opacity:1" fill="#9da5a8" d="M 80.5,55.5 C 81.756,57.3439 83.4227,58.6772 85.5,59.5C 87.3726,59.5177 87.7059,59.0177 86.5,58C 87.7932,57.51 89.1266,57.3433 90.5,57.5C 90.0825,58.2216 89.4158,58.7216 88.5,59C 88.8333,59.3333 89.1667,59.6667 89.5,60C 86.854,60.4974 84.1873,60.6641 81.5,60.5C 81.3379,62.5273 81.5045,64.5273 82,66.5C 83.9473,68.0634 85.114,70.0634 85.5,72.5C 83.8058,71.4726 82.4725,70.1392 81.5,68.5C 78.7606,65.7673 76.4273,62.7673 74.5,59.5C 74.5,58.1667 74.5,56.8333 74.5,55.5C 76.5,55.5 78.5,55.5 80.5,55.5 Z"/></g>
<g><path style="opacity:1" fill="#6b727a" d="M 37.5,71.5 C 40.08,75.93 42.9133,80.2634 46,84.5C 47.5833,85.9711 49.4166,86.9711 51.5,87.5C 51.7947,89.7354 51.4614,91.7354 50.5,93.5C 48.2355,93.5594 47.9022,92.7261 49.5,91C 48.9896,89.1739 48.1562,89.0072 47,90.5C 46.6411,87.4557 45.9745,87.1224 45,89.5C 43.8438,88.0072 43.0104,88.1739 42.5,90C 42.8919,91.0105 43.5585,91.5105 44.5,91.5C 43.5,92.3333 42.5,93.1667 41.5,94C 42.2797,95.073 42.113,96.2396 41,97.5C 39.984,96.3659 39.3173,96.6992 39,98.5C 37.2215,97.5209 35.5548,97.8542 34,99.5C 31.8771,96.0296 30.7105,96.0296 30.5,99.5C 27.9956,99.1717 26.1622,97.8384 25,95.5C 24.6667,95.8333 24.3333,96.1667 24,96.5C 21.393,93.6471 19.5597,90.6471 18.5,87.5C 16.684,89.1184 15.3507,91.1184 14.5,93.5C 15.2472,93.7365 16.0805,94.0698 17,94.5C 20.3891,100.352 24.2224,105.185 28.5,109C 27.175,108.852 26.0084,109.018 25,109.5C 23.7964,108.529 23.2964,107.529 23.5,106.5C 22.914,106.709 22.414,107.043 22,107.5C 19,105.833 16,104.167 13,102.5C 10.814,101.978 8.48063,101.978 6,102.5C 5.66667,101.833 5.33333,101.167 5,100.5C 3.95627,101.623 3.28961,102.956 3,104.5C 2.66667,103.5 2.33333,102.5 2,101.5C 1.2917,102.381 0.458367,103.047 -0.5,103.5C -0.5,94.1667 -0.5,84.8333 -0.5,75.5C 0.396953,76.5981 1.23029,76.5981 2,75.5C 2.91471,76.3279 3.58138,77.3279 4,78.5C 4.33333,77.8333 4.66667,77.1667 5,76.5C 6.08616,78.9982 7.75282,80.9982 10,82.5C 11.2051,81.9288 12.3717,81.2621 13.5,80.5C 13.2907,79.914 12.9574,79.414 12.5,79C 13.7155,76.9045 14.5488,77.0712 15,79.5C 16.4493,78.3859 17.7827,77.3859 19,76.5C 19.4828,77.448 19.6495,78.448 19.5,79.5C 20.9305,79.4208 22.2638,79.7542 23.5,80.5C 24.3267,82.162 25.4933,83.4954 27,84.5C 27.9745,82.1224 28.6411,82.4557 29,85.5C 29.3333,83.8333 29.6667,82.1667 30,80.5C 31.2022,82.553 31.5356,84.553 31,86.5C 32.6753,85.4045 33.842,83.9045 34.5,82C 33.1667,80.3333 33.1667,78.6667 34.5,77C 32.0228,75.295 30.6894,73.295 30.5,71C 31.8905,69.98 33.3905,69.1466 35,68.5C 35.3768,69.9423 36.2101,70.9423 37.5,71.5 Z"/></g>
<g><path style="opacity:1" fill="#cdd7dd" d="M 83.5,61.5 C 86.4475,61.2229 89.2809,61.5562 92,62.5C 92.8275,66.8713 92.6609,71.2047 91.5,75.5C 87.2443,71.6457 84.5776,66.9791 83.5,61.5 Z"/></g>
<g><path style="opacity:1" fill="#7b715c" d="M 94.5,69.5 C 97.1873,69.3359 99.854,69.5026 102.5,70C 103.252,70.6708 103.586,71.5041 103.5,72.5C 102.508,72.3284 101.842,72.6618 101.5,73.5C 99.4086,73.6816 97.4086,73.3482 95.5,72.5C 94.6143,71.675 94.281,70.675 94.5,69.5 Z"/></g>
<g><path style="opacity:1" fill="#a6a296" d="M 59.5,57.5 C 60.9311,57.8807 61.7645,58.8807 62,60.5C 62.3826,59.944 62.8826,59.6107 63.5,59.5C 63.1826,62.5719 63.5159,65.5719 64.5,68.5C 65.4892,64.8927 65.8226,61.226 65.5,57.5C 66.1667,60.5 66.8333,63.5 67.5,66.5C 67.1667,67.1667 66.8333,67.8333 66.5,68.5C 65.8902,69.391 65.5569,70.391 65.5,71.5C 62.323,74.2228 61.6563,77.5561 63.5,81.5C 63.5,82.1667 63.1667,82.5 62.5,82.5C 62.2785,79.9327 61.6118,77.5994 60.5,75.5C 61.0217,69.5388 60.6884,63.5388 59.5,57.5 Z"/></g>
<g><path style="opacity:1" fill="#584b36" d="M 59.5,57.5 C 60.6884,63.5388 61.0217,69.5388 60.5,75.5C 59.2921,76.2341 57.9587,76.5674 56.5,76.5C 55.7375,75.7321 54.7375,75.2321 53.5,75C 54.0659,74.0053 54.7326,73.172 55.5,72.5C 56.3149,71.5707 57.1482,70.5707 58,69.5C 58.1762,65.3123 58.6762,61.3123 59.5,57.5 Z"/></g>
<g><path style="opacity:1" fill="#dbe2e5" d="M 105.5,71.5 C 105.717,74.4206 105.051,77.0872 103.5,79.5C 101.883,78.962 100.216,78.6287 98.5,78.5C 98.5,77.8333 98.1667,77.5 97.5,77.5C 98.6252,76.0001 99.9586,74.6668 101.5,73.5C 101.842,72.6618 102.508,72.3284 103.5,72.5C 104.167,72.1667 104.833,71.8333 105.5,71.5 Z"/></g>
<g><path style="opacity:1" fill="#505152" d="M 153.5,105.5 C 153.5,113.833 153.5,122.167 153.5,130.5C 151.493,131.679 151.16,131.179 152.5,129C 151.12,127.676 150.786,126.343 151.5,125C 150.672,124.085 149.672,123.419 148.5,123C 148.957,122.586 149.291,122.086 149.5,121.5C 148.294,119.851 146.961,118.351 145.5,117C 145.833,116.667 146.167,116.333 146.5,116C 145.315,114.647 143.981,113.48 142.5,112.5C 143.661,110.776 143.495,109.11 142,107.5C 141.333,108.833 140.667,108.833 140,107.5C 139.457,105.369 138.624,103.369 137.5,101.5C 136.914,101.709 136.414,102.043 136,102.5C 135.376,100.246 134.043,98.5794 132,97.5C 131.316,96.2161 131.483,95.0495 132.5,94C 131.016,92.4263 129.349,91.093 127.5,90C 128.956,89.5774 129.456,88.7441 129,87.5C 127.391,88.1501 125.891,87.6501 124.5,86C 125.345,84.4419 124.679,83.4419 122.5,83C 123.451,82.2825 123.617,81.4491 123,80.5C 122.282,81.4506 121.449,81.6172 120.5,81C 122.833,79.3333 125.167,77.6667 127.5,76C 124.314,72.7732 121.48,72.9399 119,76.5C 118.309,74.1088 117.309,74.1088 116,76.5C 114.442,75.6548 113.442,76.3215 113,78.5C 111.242,77.5305 110.742,76.3639 111.5,75C 110.146,73.7063 108.812,73.5396 107.5,74.5C 106.831,72.3691 106.165,70.3691 105.5,68.5C 105.5,68.1667 105.5,67.8333 105.5,67.5C 107.735,67.7947 109.735,67.4614 111.5,66.5C 112.354,65.3684 112.354,64.035 111.5,62.5C 112.847,63.1712 114.014,63.1712 115,62.5C 115.333,63.5 115.667,64.5 116,65.5C 117.408,61.8315 119.075,61.8315 121,65.5C 122.378,63.7866 124.045,62.4533 126,61.5C 131.085,64.6258 134.751,68.9591 137,74.5C 138.666,73.6598 138.833,74.1598 137.5,76C 138.448,76.4828 139.448,76.6495 140.5,76.5C 140.67,77.8221 140.337,78.9887 139.5,80C 142.303,81.1122 143.303,82.9455 142.5,85.5C 144.11,87.731 145.943,89.731 148,91.5C 149.581,96.7132 151.414,101.38 153.5,105.5 Z"/></g>
<g><path style="opacity:1" fill="#48473f" d="M 65.5,71.5 C 65.7031,73.0443 66.3698,74.3777 67.5,75.5C 72.1974,77.363 76.5307,79.863 80.5,83C 79.2298,83.8996 78.2298,85.0663 77.5,86.5C 75.8333,85.8333 74.1667,85.1667 72.5,84.5C 72.1667,85.1667 71.8333,85.8333 71.5,86.5C 68.8159,84.8067 66.1492,83.14 63.5,81.5C 61.6563,77.5561 62.323,74.2228 65.5,71.5 Z"/></g>
<g><path style="opacity:1" fill="#8a8c89" d="M 81.5,68.5 C 82.4725,70.1392 83.8058,71.4726 85.5,72.5C 85.7512,74.1703 86.4178,75.6703 87.5,77C 90.8168,77.4983 94.1501,77.665 97.5,77.5C 98.1667,77.5 98.5,77.8333 98.5,78.5C 99.7387,79.212 100.239,80.212 100,81.5C 97.8615,80.2309 95.6948,80.2309 93.5,81.5C 94.714,83.0691 96.3807,83.9024 98.5,84C 98.1667,84.3333 97.8333,84.6667 97.5,85C 94.4465,85.1786 91.4465,85.6786 88.5,86.5C 89.4732,90.1477 91.8065,91.8143 95.5,91.5C 94.7095,92.4013 93.7095,93.0679 92.5,93.5C 89.2616,91.9353 86.595,89.602 84.5,86.5C 85.4069,84.7441 85.4069,82.9108 84.5,81C 84.7549,79.6739 85.4216,78.6739 86.5,78C 85.9558,77.2828 85.2891,76.7828 84.5,76.5C 83.8333,76.5 83.5,76.1667 83.5,75.5C 82.0605,73.412 81.3939,71.0786 81.5,68.5 Z"/></g>
<g><path style="opacity:1" fill="#bbc1c1" d="M 98.5,78.5 C 100.216,78.6287 101.883,78.962 103.5,79.5C 100.441,83.228 97.7744,87.228 95.5,91.5C 91.8065,91.8143 89.4732,90.1477 88.5,86.5C 91.4465,85.6786 94.4465,85.1786 97.5,85C 97.8333,84.6667 98.1667,84.3333 98.5,84C 96.3807,83.9024 94.714,83.0691 93.5,81.5C 95.6948,80.2309 97.8615,80.2309 100,81.5C 100.239,80.212 99.7387,79.212 98.5,78.5 Z"/></g>
<g><path style="opacity:1" fill="#6c6b63" d="M 84.5,76.5 C 85.2891,76.7828 85.9558,77.2828 86.5,78C 85.4216,78.6739 84.7549,79.6739 84.5,81C 85.4069,82.9108 85.4069,84.7441 84.5,86.5C 86.595,89.602 89.2616,91.9353 92.5,93.5C 91.5,93.8333 90.8333,94.5 90.5,95.5C 88.8583,93.9192 86.8583,93.2525 84.5,93.5C 83.7494,92.4265 82.7494,92.2599 81.5,93C 77.9536,96.7732 73.6202,98.9399 68.5,99.5C 68.5674,98.0413 68.2341,96.7079 67.5,95.5C 69.9267,95.477 72.26,94.977 74.5,94C 73.3659,92.984 73.6992,92.3173 75.5,92C 73.8988,91.7266 72.3988,91.2266 71,90.5C 70.2506,89.365 70.4173,88.365 71.5,87.5C 72.5,88.1667 73.5,88.8333 74.5,89.5C 75.6956,89.1543 75.6956,88.6543 74.5,88C 76.4727,87.5045 78.4727,87.3379 80.5,87.5C 80.5,86.5 80.5,85.5 80.5,84.5C 81.552,84.6495 82.552,84.4828 83.5,84C 79.1427,79.7471 79.476,77.2471 84.5,76.5 Z"/></g>
<g><path style="opacity:1" fill="#6c747d" d="M 50.5,93.5 C 50.3056,97.2483 48.639,99.915 45.5,101.5C 44.4168,101.461 43.4168,101.127 42.5,100.5C 41.2997,101.531 39.9663,102.365 38.5,103C 36.2674,105.996 33.9341,108.829 31.5,111.5C 29.5331,112.632 27.6998,112.299 26,110.5C 25.6667,110.833 25.3333,111.167 25,111.5C 23.2663,110.751 21.433,110.251 19.5,110C 17.8247,108.249 15.9914,107.082 14,106.5C 12.2326,108.164 12.7326,109.331 15.5,110C 15.1667,111 14.8333,112 14.5,113C 16.0609,113.318 17.2276,114.151 18,115.5C 18.3333,114.833 18.6667,114.167 19,113.5C 19.5,114.667 20.3333,115.5 21.5,116C 20.5494,116.718 20.3828,117.551 21,118.5C 22.0852,117.707 23.2519,117.04 24.5,116.5C 24.2143,118.922 24.5477,121.089 25.5,123C 23.8374,123.265 22.3374,122.765 21,121.5C 20.3333,124.167 19.6667,124.167 19,121.5C 17.6015,122.051 16.2682,122.384 15,122.5C 12.5584,121.18 10.0584,120.347 7.5,120C 8.30806,120.308 8.97473,120.808 9.5,121.5C 8.87715,123.711 7.87715,125.711 6.5,127.5C 8.0565,129.701 9.22317,129.701 10,127.5C 10.7504,128.126 11.5838,128.626 12.5,129C 11.7734,130.399 11.2734,131.899 11,133.5C 9.03642,129.437 7.03642,129.103 5,132.5C 3.04805,131.253 1.21472,129.919 -0.5,128.5C -0.5,120.167 -0.5,111.833 -0.5,103.5C 0.458367,103.047 1.2917,102.381 2,101.5C 2.33333,102.5 2.66667,103.5 3,104.5C 3.28961,102.956 3.95627,101.623 5,100.5C 5.33333,101.167 5.66667,101.833 6,102.5C 8.48063,101.978 10.814,101.978 13,102.5C 16,104.167 19,105.833 22,107.5C 22.414,107.043 22.914,106.709 23.5,106.5C 23.2964,107.529 23.7964,108.529 25,109.5C 26.0084,109.018 27.175,108.852 28.5,109C 24.2224,105.185 20.3891,100.352 17,94.5C 16.0805,94.0698 15.2472,93.7365 14.5,93.5C 15.3507,91.1184 16.684,89.1184 18.5,87.5C 19.5597,90.6471 21.393,93.6471 24,96.5C 24.3333,96.1667 24.6667,95.8333 25,95.5C 26.1622,97.8384 27.9956,99.1717 30.5,99.5C 30.7105,96.0296 31.8771,96.0296 34,99.5C 35.5548,97.8542 37.2215,97.5209 39,98.5C 39.3173,96.6992 39.984,96.3659 41,97.5C 42.113,96.2396 42.2797,95.073 41.5,94C 42.5,93.1667 43.5,92.3333 44.5,91.5C 43.5585,91.5105 42.8919,91.0105 42.5,90C 43.0104,88.1739 43.8438,88.0072 45,89.5C 45.9745,87.1224 46.6411,87.4557 47,90.5C 48.1562,89.0072 48.9896,89.1739 49.5,91C 47.9022,92.7261 48.2355,93.5594 50.5,93.5 Z"/></g>
<g><path style="opacity:1" fill="#5c5950" d="M 66.5,68.5 C 69.6371,71.1834 71.9704,71.1834 73.5,68.5C 75.0016,69.0831 76.3349,69.9164 77.5,71C 76.2888,71.8928 76.2888,72.7261 77.5,73.5C 79.4496,74.3721 81.4496,75.0388 83.5,75.5C 83.5,76.1667 83.8333,76.5 84.5,76.5C 79.476,77.2471 79.1427,79.7471 83.5,84C 82.552,84.4828 81.552,84.6495 80.5,84.5C 80.5,85.5 80.5,86.5 80.5,87.5C 78.4727,87.3379 76.4727,87.5045 74.5,88C 75.6956,88.6543 75.6956,89.1543 74.5,89.5C 73.5,88.8333 72.5,88.1667 71.5,87.5C 70.4173,88.365 70.2506,89.365 71,90.5C 72.3988,91.2266 73.8988,91.7266 75.5,92C 73.6992,92.3173 73.3659,92.984 74.5,94C 72.26,94.977 69.9267,95.477 67.5,95.5C 67.7406,93.1016 67.0739,91.1016 65.5,89.5C 65.313,87.4357 64.813,85.4357 64,83.5C 63.5357,84.0944 63.369,84.7611 63.5,85.5C 62.596,84.791 62.2627,83.791 62.5,82.5C 63.1667,82.5 63.5,82.1667 63.5,81.5C 66.1492,83.14 68.8159,84.8067 71.5,86.5C 71.8333,85.8333 72.1667,85.1667 72.5,84.5C 74.1667,85.1667 75.8333,85.8333 77.5,86.5C 78.2298,85.0663 79.2298,83.8996 80.5,83C 76.5307,79.863 72.1974,77.363 67.5,75.5C 66.3698,74.3777 65.7031,73.0443 65.5,71.5C 65.5569,70.391 65.8902,69.391 66.5,68.5 Z"/></g>
<g><path style="opacity:1" fill="#7b7b74" d="M 65.5,89.5 C 66.3266,93.8072 66.9933,98.1405 67.5,102.5C 67.6602,104.199 67.4935,105.866 67,107.5C 66.6174,106.944 66.1174,106.611 65.5,106.5C 63.9588,102.836 62.9588,99.003 62.5,95C 62.9085,93.0695 63.5752,91.2362 64.5,89.5C 64.4573,88.5836 64.1239,87.9169 63.5,87.5C 63.5,86.8333 63.5,86.1667 63.5,85.5C 63.369,84.7611 63.5357,84.0944 64,83.5C 64.813,85.4357 65.313,87.4357 65.5,89.5 Z"/></g>
<g><path style="opacity:1" fill="#424037" d="M 60.5,75.5 C 61.6118,77.5994 62.2785,79.9327 62.5,82.5C 62.2627,83.791 62.596,84.791 63.5,85.5C 63.5,86.1667 63.5,86.8333 63.5,87.5C 61.3227,88.3654 60.3227,90.0321 60.5,92.5C 61.2739,96.4649 61.6073,100.465 61.5,104.5C 59.7085,104.634 58.0418,104.301 56.5,103.5C 57.0913,101.804 56.258,100.471 54,99.5C 52.7387,99.7591 51.7387,100.426 51,101.5C 50.6667,101.167 50.3333,100.833 50,100.5C 49.221,101.728 48.221,102.728 47,103.5C 45.9701,103.164 45.4701,102.497 45.5,101.5C 48.639,99.915 50.3056,97.2483 50.5,93.5C 51.4614,91.7354 51.7947,89.7354 51.5,87.5C 52.4816,84.0381 52.815,80.3714 52.5,76.5C 53.8333,76.5 55.1667,76.5 56.5,76.5C 57.9587,76.5674 59.2921,76.2341 60.5,75.5 Z"/></g>
<g><path style="opacity:1" fill="#474030" d="M 56.5,103.5 C 55.596,104.209 55.2627,105.209 55.5,106.5C 52.8015,106.466 50.3015,107.133 48,108.5C 45.7328,107.065 43.7328,107.398 42,109.5C 41.0094,108.061 39.676,107.061 38,106.5C 37.0598,109.674 35.5598,112.507 33.5,115C 33.8082,116.459 34.4749,117.626 35.5,118.5C 33.8847,121.746 34.2181,124.746 36.5,127.5C 34.9928,128.739 33.8261,128.405 33,126.5C 32.8933,129.131 32.7266,131.631 32.5,134C 35.2491,133.823 37.5824,134.99 39.5,137.5C 39.8584,139.701 41.1917,141.035 43.5,141.5C 44.3176,145.582 45.3176,149.582 46.5,153.5C 43.1667,153.5 39.8333,153.5 36.5,153.5C 37.8408,151.166 37.1741,149.499 34.5,148.5C 32.4725,144.583 31.1392,140.417 30.5,136C 30.4131,127.834 30.7464,119.668 31.5,111.5C 33.9341,108.829 36.2674,105.996 38.5,103C 39.9663,102.365 41.2997,101.531 42.5,100.5C 43.4168,101.127 44.4168,101.461 45.5,101.5C 45.4701,102.497 45.9701,103.164 47,103.5C 48.221,102.728 49.221,101.728 50,100.5C 50.3333,100.833 50.6667,101.167 51,101.5C 51.7387,100.426 52.7387,99.7591 54,99.5C 56.258,100.471 57.0913,101.804 56.5,103.5 Z"/></g>
<g><path style="opacity:1" fill="#515558" d="M 105.5,68.5 C 106.165,70.3691 106.831,72.3691 107.5,74.5C 108.812,73.5396 110.146,73.7063 111.5,75C 110.742,76.3639 111.242,77.5305 113,78.5C 113.442,76.3215 114.442,75.6548 116,76.5C 117.309,74.1088 118.309,74.1088 119,76.5C 121.48,72.9399 124.314,72.7732 127.5,76C 125.167,77.6667 122.833,79.3333 120.5,81C 121.449,81.6172 122.282,81.4506 123,80.5C 123.617,81.4491 123.451,82.2825 122.5,83C 124.679,83.4419 125.345,84.4419 124.5,86C 125.891,87.6501 127.391,88.1501 129,87.5C 129.456,88.7441 128.956,89.5774 127.5,90C 129.349,91.093 131.016,92.4263 132.5,94C 131.483,95.0495 131.316,96.2161 132,97.5C 134.043,98.5794 135.376,100.246 136,102.5C 136.414,102.043 136.914,101.709 137.5,101.5C 138.624,103.369 139.457,105.369 140,107.5C 140.667,108.833 141.333,108.833 142,107.5C 143.495,109.11 143.661,110.776 142.5,112.5C 143.981,113.48 145.315,114.647 146.5,116C 146.167,116.333 145.833,116.667 145.5,117C 146.961,118.351 148.294,119.851 149.5,121.5C 149.291,122.086 148.957,122.586 148.5,123C 149.672,123.419 150.672,124.085 151.5,125C 150.786,126.343 151.12,127.676 152.5,129C 151.16,131.179 151.493,131.679 153.5,130.5C 153.5,134.833 153.5,139.167 153.5,143.5C 151.895,141.52 150.728,139.187 150,136.5C 149.259,137.641 148.425,137.641 147.5,136.5C 144.522,133.511 141.855,130.177 139.5,126.5C 138.158,125.098 137.324,125.431 137,127.5C 135.013,125.321 135.18,123.488 137.5,122C 137.634,120.455 137.3,118.788 136.5,117C 137.022,116.05 137.689,115.216 138.5,114.5C 138.154,113.304 137.654,113.304 137,114.5C 136.316,113.216 136.483,112.049 137.5,111C 135.699,110.683 135.366,110.016 136.5,109C 134.673,107.043 132.84,105.876 131,105.5C 130.508,106.549 130.674,107.549 131.5,108.5C 130.975,109.192 130.308,109.692 129.5,110C 130.308,110.308 130.975,110.808 131.5,111.5C 130.939,113.426 130.773,115.426 131,117.5C 130.25,116.874 129.416,116.374 128.5,116C 129.458,114.853 129.125,113.853 127.5,113C 127.616,111.732 127.949,110.398 128.5,109C 127.5,108.667 126.5,108.333 125.5,108C 126.451,107.282 126.617,106.449 126,105.5C 124.406,104.284 122.906,102.951 121.5,101.5C 120.035,102.609 119.035,102.109 118.5,100C 114.911,98.8841 112.077,97.3841 110,95.5C 109.257,97.8739 109.757,99.8739 111.5,101.5C 110.5,101.5 109.5,101.5 108.5,101.5C 108.5,100.5 108.5,99.5 108.5,98.5C 105.14,98.3841 101.807,98.0508 98.5,97.5C 97.8333,97.8333 97.1667,98.1667 96.5,98.5C 94.5,97.5 92.5,96.5 90.5,95.5C 90.8333,94.5 91.5,93.8333 92.5,93.5C 93.7095,93.0679 94.7095,92.4013 95.5,91.5C 97.7744,87.228 100.441,83.228 103.5,79.5C 105.051,77.0872 105.717,74.4206 105.5,71.5C 105.5,70.8333 105.5,70.1667 105.5,69.5C 105.5,69.1667 105.5,68.8333 105.5,68.5 Z"/></g>
<g><path style="opacity:1" fill="#59574c" d="M 63.5,87.5 C 64.1239,87.9169 64.4573,88.5836 64.5,89.5C 63.5752,91.2362 62.9085,93.0695 62.5,95C 62.9588,99.003 63.9588,102.836 65.5,106.5C 65.6716,107.492 65.3382,108.158 64.5,108.5C 59.5223,107.289 54.5223,107.455 49.5,109C 48.572,109.388 47.9054,110.055 47.5,111C 48.444,112.477 49.7774,113.477 51.5,114C 48.9999,114.375 46.6666,115.208 44.5,116.5C 43.0955,113.929 41.7621,113.929 40.5,116.5C 38.5563,110.176 37.5563,110.176 37.5,116.5C 36.5,116.833 35.8333,117.5 35.5,118.5C 34.4749,117.626 33.8082,116.459 33.5,115C 35.5598,112.507 37.0598,109.674 38,106.5C 39.676,107.061 41.0094,108.061 42,109.5C 43.7328,107.398 45.7328,107.065 48,108.5C 50.3015,107.133 52.8015,106.466 55.5,106.5C 55.2627,105.209 55.596,104.209 56.5,103.5C 58.0418,104.301 59.7085,104.634 61.5,104.5C 61.6073,100.465 61.2739,96.4649 60.5,92.5C 60.3227,90.0321 61.3227,88.3654 63.5,87.5 Z"/></g>
<g><path style="opacity:1" fill="#d2dce1" d="M 84.5,93.5 C 86.8583,93.2525 88.8583,93.9192 90.5,95.5C 92.5,96.5 94.5,97.5 96.5,98.5C 96.1667,99.5 95.5,100.167 94.5,100.5C 92.7807,103.37 90.9474,106.37 89,109.5C 88.51,110.793 88.3433,112.127 88.5,113.5C 82.7555,114.175 81.0888,111.841 83.5,106.5C 80.3256,103.368 79.6589,99.7012 81.5,95.5C 82.2223,94.4489 83.2223,93.7822 84.5,93.5 Z"/></g>
<g><path style="opacity:1" fill="#9fa5a5" d="M 65.5,89.5 C 67.0739,91.1016 67.7406,93.1016 67.5,95.5C 68.2341,96.7079 68.5674,98.0413 68.5,99.5C 73.6202,98.9399 77.9536,96.7732 81.5,93C 82.7494,92.2599 83.7494,92.4265 84.5,93.5C 83.2223,93.7822 82.2223,94.4489 81.5,95.5C 77.4641,98.7751 76.1308,102.942 77.5,108C 76.9444,109.011 76.2778,109.844 75.5,110.5C 73.7028,109.27 71.7028,108.604 69.5,108.5C 69.7845,106.585 69.4511,104.919 68.5,103.5C 68.5,102.833 68.1667,102.5 67.5,102.5C 66.9933,98.1405 66.3266,93.8072 65.5,89.5 Z"/></g>
<g><path style="opacity:1" fill="#6f7882" d="M 31.5,111.5 C 30.7464,119.668 30.4131,127.834 30.5,136C 31.1392,140.417 32.4725,144.583 34.5,148.5C 32.5183,148.995 30.5183,149.495 28.5,150C 27.6634,151.011 27.33,152.178 27.5,153.5C 18.1667,153.5 8.83333,153.5 -0.5,153.5C -0.5,145.167 -0.5,136.833 -0.5,128.5C 1.21472,129.919 3.04805,131.253 5,132.5C 7.03642,129.103 9.03642,129.437 11,133.5C 11.2734,131.899 11.7734,130.399 12.5,129C 11.5838,128.626 10.7504,128.126 10,127.5C 9.22317,129.701 8.0565,129.701 6.5,127.5C 7.87715,125.711 8.87715,123.711 9.5,121.5C 8.97473,120.808 8.30806,120.308 7.5,120C 10.0584,120.347 12.5584,121.18 15,122.5C 16.2682,122.384 17.6015,122.051 19,121.5C 19.6667,124.167 20.3333,124.167 21,121.5C 22.3374,122.765 23.8374,123.265 25.5,123C 24.5477,121.089 24.2143,118.922 24.5,116.5C 23.2519,117.04 22.0852,117.707 21,118.5C 20.3828,117.551 20.5494,116.718 21.5,116C 20.3333,115.5 19.5,114.667 19,113.5C 18.6667,114.167 18.3333,114.833 18,115.5C 17.2276,114.151 16.0609,113.318 14.5,113C 14.8333,112 15.1667,111 15.5,110C 12.7326,109.331 12.2326,108.164 14,106.5C 15.9914,107.082 17.8247,108.249 19.5,110C 21.433,110.251 23.2663,110.751 25,111.5C 25.3333,111.167 25.6667,110.833 26,110.5C 27.6998,112.299 29.5331,112.632 31.5,111.5 Z"/></g>
<g><path style="opacity:1" fill="#645943" d="M 95.5,112.5 C 95.1667,112.5 94.8333,112.5 94.5,112.5C 93.5655,111.432 93.2322,110.099 93.5,108.5C 93.8333,107.833 94.1667,107.167 94.5,106.5C 95.3019,105.048 95.8019,103.382 96,101.5C 96.7554,105.255 96.5887,108.922 95.5,112.5 Z"/></g>
<g><path style="opacity:1" fill="#ebf3f6" d="M 116.5,105.5 C 120.908,110.315 123.075,115.982 123,122.5C 122.338,123.984 121.504,125.317 120.5,126.5C 119.5,126.5 118.5,126.5 117.5,126.5C 116.564,118.42 113.564,111.254 108.5,105C 111.141,102.985 113.308,103.485 115,106.5C 115.383,105.944 115.883,105.611 116.5,105.5 Z"/></g>
<g><path style="opacity:1" fill="#93958c" d="M 98.5,97.5 C 98.9196,101.079 99.0862,104.746 99,108.5C 99.3333,107.167 99.6667,105.833 100,104.5C 100.278,105.416 100.778,106.082 101.5,106.5C 100.81,109.856 98.8103,111.856 95.5,112.5C 96.5887,108.922 96.7554,105.255 96,101.5C 95.8019,103.382 95.3019,105.048 94.5,106.5C 94.5,104.5 94.5,102.5 94.5,100.5C 95.5,100.167 96.1667,99.5 96.5,98.5C 97.1667,98.1667 97.8333,97.8333 98.5,97.5 Z"/></g>
<g><path style="opacity:1" fill="#6d6e6b" d="M 64.5,108.5 C 64.5,109.167 64.1667,109.5 63.5,109.5C 60.8872,108.565 58.2205,108.398 55.5,109C 55.121,111.188 53.9543,113.355 52,115.5C 50.323,116.901 48.6563,118.235 47,119.5C 44.3911,119.162 42.2244,118.162 40.5,116.5C 41.7621,113.929 43.0955,113.929 44.5,116.5C 46.6666,115.208 48.9999,114.375 51.5,114C 49.7774,113.477 48.444,112.477 47.5,111C 47.9054,110.055 48.572,109.388 49.5,109C 54.5223,107.455 59.5223,107.289 64.5,108.5 Z"/></g>
<g><path style="opacity:1" fill="#bbc4c8" d="M 81.5,95.5 C 79.6589,99.7012 80.3256,103.368 83.5,106.5C 81.0888,111.841 82.7555,114.175 88.5,113.5C 88.3433,112.127 88.51,110.793 89,109.5C 90.9474,106.37 92.7807,103.37 94.5,100.5C 94.5,102.5 94.5,104.5 94.5,106.5C 94.1667,107.167 93.8333,107.833 93.5,108.5C 93.1667,108.5 92.8333,108.5 92.5,108.5C 90.4754,113.696 86.8087,117.53 81.5,120C 77.8333,120.333 74.1667,120.667 70.5,121C 71.3366,122.011 71.67,123.178 71.5,124.5C 70.207,123.158 69.3736,121.491 69,119.5C 68.5006,114.177 68.334,108.844 68.5,103.5C 69.4511,104.919 69.7845,106.585 69.5,108.5C 69.5,110.5 69.5,112.5 69.5,114.5C 72.8784,115.109 74.8784,113.776 75.5,110.5C 76.2778,109.844 76.9444,109.011 77.5,108C 76.1308,102.942 77.4641,98.7751 81.5,95.5 Z"/></g>
<g><path style="opacity:1" fill="#8a7b5f" d="M 69.5,108.5 C 71.7028,108.604 73.7028,109.27 75.5,110.5C 74.8784,113.776 72.8784,115.109 69.5,114.5C 69.5,112.5 69.5,110.5 69.5,108.5 Z"/></g>
<g><path style="opacity:1" fill="#8e8673" d="M 67.5,102.5 C 68.1667,102.5 68.5,102.833 68.5,103.5C 68.334,108.844 68.5006,114.177 69,119.5C 69.3736,121.491 70.207,123.158 71.5,124.5C 71.5,125.5 71.5,126.5 71.5,127.5C 68.9664,127.259 67.2998,128.259 66.5,130.5C 65.8333,131.5 65.1667,132.5 64.5,133.5C 64.7366,129.973 63.4033,127.306 60.5,125.5C 57.9147,126.073 56.9147,127.739 57.5,130.5C 55.6231,129.341 55.1231,127.674 56,125.5C 58.1474,124.887 60.314,124.221 62.5,123.5C 60.8273,121.914 58.8273,121.247 56.5,121.5C 56.2606,119.533 56.5939,117.699 57.5,116C 59.7004,116.584 61.867,116.418 64,115.5C 64.3334,113.953 63.8334,112.62 62.5,111.5C 62.8627,110.817 63.1961,110.15 63.5,109.5C 64.1667,109.5 64.5,109.167 64.5,108.5C 65.3382,108.158 65.6716,107.492 65.5,106.5C 66.1174,106.611 66.6174,106.944 67,107.5C 67.4935,105.866 67.6602,104.199 67.5,102.5 Z"/></g>
<g><path style="opacity:1" fill="#8d8f88" d="M 92.5,108.5 C 92.8333,108.5 93.1667,108.5 93.5,108.5C 93.2322,110.099 93.5655,111.432 94.5,112.5C 95.1712,113.847 95.1712,115.014 94.5,116C 95.1667,116.333 95.8333,116.667 96.5,117C 92.7157,118.071 89.049,120.071 85.5,123C 86.4158,123.278 87.0825,123.778 87.5,124.5C 85.1016,124.741 83.1016,124.074 81.5,122.5C 84.5983,122.587 84.9316,122.087 82.5,121C 88.3122,118.7 91.6455,114.534 92.5,108.5 Z"/></g>
<g><path style="opacity:1" fill="#cdd5d8" d="M 98.5,97.5 C 101.807,98.0508 105.14,98.3841 108.5,98.5C 108.5,99.5 108.5,100.5 108.5,101.5C 109.5,101.5 110.5,101.5 111.5,101.5C 113.349,102.593 115.016,103.926 116.5,105.5C 115.883,105.611 115.383,105.944 115,106.5C 113.308,103.485 111.141,102.985 108.5,105C 113.564,111.254 116.564,118.42 117.5,126.5C 118.5,126.5 119.5,126.5 120.5,126.5C 119.89,127.391 119.557,128.391 119.5,129.5C 118.167,129.5 116.833,129.5 115.5,129.5C 115.911,132.276 115.078,132.943 113,131.5C 109.265,132.688 106.599,135.021 105,138.5C 104.292,137.619 103.458,136.953 102.5,136.5C 101.402,135.603 101.402,134.77 102.5,134C 100.5,133.667 98.5,133.333 96.5,133C 100.183,132.024 100.849,130.357 98.5,128C 101.701,124.614 101.035,123.281 96.5,124C 95.4911,126.172 93.8244,127.338 91.5,127.5C 91.6716,126.508 91.3382,125.842 90.5,125.5C 89.391,125.443 88.391,125.11 87.5,124.5C 87.0825,123.778 86.4158,123.278 85.5,123C 89.049,120.071 92.7157,118.071 96.5,117C 95.8333,116.667 95.1667,116.333 94.5,116C 95.1712,115.014 95.1712,113.847 94.5,112.5C 94.8333,112.5 95.1667,112.5 95.5,112.5C 98.8103,111.856 100.81,109.856 101.5,106.5C 100.778,106.082 100.278,105.416 100,104.5C 99.6667,105.833 99.3333,107.167 99,108.5C 99.0862,104.746 98.9196,101.079 98.5,97.5 Z"/></g>
<g><path style="opacity:1" fill="#abafaa" d="M 106.5,109.5 C 108.262,110.262 109.262,111.596 109.5,113.5C 108.425,112.438 107.425,112.438 106.5,113.5C 108.612,117.216 108.945,121.049 107.5,125C 108.71,126.039 109.71,127.206 110.5,128.5C 110.53,129.497 110.03,130.164 109,130.5C 107.395,129.899 106.062,128.899 105,127.5C 103.02,123.707 101.186,119.874 99.5,116C 100.449,115.383 101.282,115.549 102,116.5C 102.813,114.564 103.313,112.564 103.5,110.5C 104.791,110.737 105.791,110.404 106.5,109.5 Z"/></g>
<g><path style="opacity:1" fill="#8e8d81" d="M 106.5,109.5 C 105.791,110.404 104.791,110.737 103.5,110.5C 103.34,108.847 102.674,107.514 101.5,106.5C 101.338,104.473 101.505,102.473 102,100.5C 104.551,102.934 106.051,105.934 106.5,109.5 Z"/></g>
<g><path style="opacity:1" fill="#dfe7ea" d="M 109.5,113.5 C 112.037,117.712 113.203,122.379 113,127.5C 114.489,128.424 114.656,129.424 113.5,130.5C 112.482,129.807 111.482,129.141 110.5,128.5C 109.71,127.206 108.71,126.039 107.5,125C 108.945,121.049 108.612,117.216 106.5,113.5C 107.425,112.438 108.425,112.438 109.5,113.5 Z"/></g>
<g><path style="opacity:1" fill="#5f4a27" d="M 76.5,121.5 C 78.1172,122.038 79.7839,122.371 81.5,122.5C 83.1016,124.074 85.1016,124.741 87.5,124.5C 88.391,125.11 89.391,125.443 90.5,125.5C 90.1583,126.338 89.4916,126.672 88.5,126.5C 85.8806,126.232 83.3806,126.565 81,127.5C 79.513,126.747 79.3463,125.914 80.5,125C 78.4497,124.584 77.1164,123.417 76.5,121.5 Z"/></g>
<g><path style="opacity:1" fill="#9fa4a3" d="M 92.5,108.5 C 91.6455,114.534 88.3122,118.7 82.5,121C 84.9316,122.087 84.5983,122.587 81.5,122.5C 79.7839,122.371 78.1172,122.038 76.5,121.5C 75.6618,121.842 75.3284,122.508 75.5,123.5C 75.7239,125.787 76.3906,127.953 77.5,130C 77.1639,131.03 76.4972,131.53 75.5,131.5C 74.1611,129.127 72.8278,126.793 71.5,124.5C 71.67,123.178 71.3366,122.011 70.5,121C 74.1667,120.667 77.8333,120.333 81.5,120C 86.8087,117.53 90.4754,113.696 92.5,108.5 Z"/></g>
<g><path style="opacity:1" fill="#929796" d="M 63.5,109.5 C 63.1961,110.15 62.8627,110.817 62.5,111.5C 63.8334,112.62 64.3334,113.953 64,115.5C 61.867,116.418 59.7004,116.584 57.5,116C 56.5939,117.699 56.2606,119.533 56.5,121.5C 58.8273,121.247 60.8273,121.914 62.5,123.5C 60.314,124.221 58.1474,124.887 56,125.5C 55.1231,127.674 55.6231,129.341 57.5,130.5C 57.5,131.167 57.5,131.833 57.5,132.5C 58.167,134.819 58.3336,137.153 58,139.5C 57.7996,137.68 56.9663,136.347 55.5,135.5C 55.67,134.178 55.3366,133.011 54.5,132C 52.1195,131.262 50.1195,131.762 48.5,133.5C 47.6868,134.653 46.6868,134.653 45.5,133.5C 44.8076,134.025 44.3076,134.692 44,135.5C 43.6667,135.167 43.3333,134.833 43,134.5C 41.0793,128.275 39.246,122.275 37.5,116.5C 37.5563,110.176 38.5563,110.176 40.5,116.5C 42.2244,118.162 44.3911,119.162 47,119.5C 48.6563,118.235 50.323,116.901 52,115.5C 53.9543,113.355 55.121,111.188 55.5,109C 58.2205,108.398 60.8872,108.565 63.5,109.5 Z"/></g>
<g><path style="opacity:1" fill="#67604d" d="M 43.5,120.5 C 46.0248,121.64 48.6915,122.307 51.5,122.5C 51.5191,124.06 51.8524,125.56 52.5,127C 51.0013,131.494 49.168,131.661 47,127.5C 46.3086,129.891 45.3086,129.891 44,127.5C 43.5034,125.19 43.3367,122.857 43.5,120.5 Z"/></g>
<g><path style="opacity:1" fill="#50575d" d="M 153.5,143.5 C 153.5,146.833 153.5,150.167 153.5,153.5C 145.167,153.5 136.833,153.5 128.5,153.5C 128.463,150.298 126.797,148.632 123.5,148.5C 120.781,147.087 117.781,146.42 114.5,146.5C 115.627,143.191 115.627,139.857 114.5,136.5C 116.522,134.469 118.189,132.135 119.5,129.5C 119.557,128.391 119.89,127.391 120.5,126.5C 121.504,125.317 122.338,123.984 123,122.5C 123.075,115.982 120.908,110.315 116.5,105.5C 115.016,103.926 113.349,102.593 111.5,101.5C 109.757,99.8739 109.257,97.8739 110,95.5C 112.077,97.3841 114.911,98.8841 118.5,100C 119.035,102.109 120.035,102.609 121.5,101.5C 122.906,102.951 124.406,104.284 126,105.5C 126.617,106.449 126.451,107.282 125.5,108C 126.5,108.333 127.5,108.667 128.5,109C 127.949,110.398 127.616,111.732 127.5,113C 129.125,113.853 129.458,114.853 128.5,116C 129.416,116.374 130.25,116.874 131,117.5C 130.773,115.426 130.939,113.426 131.5,111.5C 130.975,110.808 130.308,110.308 129.5,110C 130.308,109.692 130.975,109.192 131.5,108.5C 130.674,107.549 130.508,106.549 131,105.5C 132.84,105.876 134.673,107.043 136.5,109C 135.366,110.016 135.699,110.683 137.5,111C 136.483,112.049 136.316,113.216 137,114.5C 137.654,113.304 138.154,113.304 138.5,114.5C 137.689,115.216 137.022,116.05 136.5,117C 137.3,118.788 137.634,120.455 137.5,122C 135.18,123.488 135.013,125.321 137,127.5C 137.324,125.431 138.158,125.098 139.5,126.5C 141.855,130.177 144.522,133.511 147.5,136.5C 148.425,137.641 149.259,137.641 150,136.5C 150.728,139.187 151.895,141.52 153.5,143.5 Z"/></g>
<g><path style="opacity:1" fill="#959589" d="M 75.5,123.5 C 76.3094,124.469 77.3094,125.302 78.5,126C 78.1667,126.333 77.8333,126.667 77.5,127C 78.2266,128.399 78.7266,129.899 79,131.5C 80.0495,132.517 81.2161,132.684 82.5,132C 80.9926,131.163 80.4926,129.996 81,128.5C 82,128.833 83,129.167 84,129.5C 85.3103,128.103 86.8103,127.103 88.5,126.5C 89.4916,126.672 90.1583,126.338 90.5,125.5C 91.3382,125.842 91.6716,126.508 91.5,127.5C 89.4109,127.857 87.4109,128.523 85.5,129.5C 84.2086,130.527 84.2086,131.527 85.5,132.5C 84.8973,133.635 84.5639,134.635 84.5,135.5C 83.6365,134.537 82.9698,134.537 82.5,135.5C 84.0152,137.547 84.8485,139.881 85,142.5C 87.0218,144.522 89.0218,146.522 91,148.5C 91.9454,148.095 92.6121,147.428 93,146.5C 93.3988,146.728 93.5654,147.062 93.5,147.5C 94.635,148.474 95.635,149.641 96.5,151C 94.0454,152.54 91.3787,152.874 88.5,152C 85.5736,150.988 84.7403,149.155 86,146.5C 85,145.167 84,145.167 83,146.5C 82.3333,145.833 81.6667,145.167 81,144.5C 80.9519,146.544 81.4519,148.544 82.5,150.5C 81.8075,151.518 81.1408,152.518 80.5,153.5C 77.5,153.5 74.5,153.5 71.5,153.5C 72.3719,150.579 72.3719,147.579 71.5,144.5C 72.1577,145.398 72.8243,146.398 73.5,147.5C 76.4188,146.143 77.9188,143.81 78,140.5C 78.9147,141.328 79.5814,142.328 80,143.5C 80.5,142.5 81,141.5 81.5,140.5C 80.0237,137.857 78.0237,135.69 75.5,134C 75.6243,133.03 75.6243,132.197 75.5,131.5C 76.4972,131.53 77.1639,131.03 77.5,130C 76.3906,127.953 75.7239,125.787 75.5,123.5 Z"/></g>
<g><path style="opacity:1" fill="#6a614e" d="M 76.5,121.5 C 77.1164,123.417 78.4497,124.584 80.5,125C 79.3463,125.914 79.513,126.747 81,127.5C 83.3806,126.565 85.8806,126.232 88.5,126.5C 86.8103,127.103 85.3103,128.103 84,129.5C 83,129.167 82,128.833 81,128.5C 80.4926,129.996 80.9926,131.163 82.5,132C 81.2161,132.684 80.0495,132.517 79,131.5C 78.7266,129.899 78.2266,128.399 77.5,127C 77.8333,126.667 78.1667,126.333 78.5,126C 77.3094,125.302 76.3094,124.469 75.5,123.5C 75.3284,122.508 75.6618,121.842 76.5,121.5 Z"/></g>
<g><path style="opacity:1" fill="#b3bdbf" d="M 102.5,136.5 C 98.5104,135.81 94.5104,135.643 90.5,136C 92.8146,137.368 92.8146,138.201 90.5,138.5C 87.0325,137.826 86.3658,136.492 88.5,134.5C 87.6431,133.575 86.6431,132.908 85.5,132.5C 84.2086,131.527 84.2086,130.527 85.5,129.5C 87.4109,128.523 89.4109,127.857 91.5,127.5C 93.8244,127.338 95.4911,126.172 96.5,124C 101.035,123.281 101.701,124.614 98.5,128C 100.849,130.357 100.183,132.024 96.5,133C 98.5,133.333 100.5,133.667 102.5,134C 101.402,134.77 101.402,135.603 102.5,136.5 Z"/></g>
<g><path style="opacity:1" fill="#7a7564" d="M 91.5,130.5 C 91.56,129.957 91.8933,129.624 92.5,129.5C 93.5,130.833 94.5,132.167 95.5,133.5C 94.9984,134.521 94.3317,134.688 93.5,134C 92.9152,132.698 92.2485,131.531 91.5,130.5 Z"/></g>
<g><path style="opacity:1" fill="#78705c" d="M 55.5,135.5 C 53.2986,134.434 50.9653,133.767 48.5,133.5C 50.1195,131.762 52.1195,131.262 54.5,132C 55.3366,133.011 55.67,134.178 55.5,135.5 Z"/></g>
<g><path style="opacity:1" fill="#b5b8b4" d="M 119.5,129.5 C 118.189,132.135 116.522,134.469 114.5,136.5C 112.61,137.18 110.61,137.347 108.5,137C 106.9,138.815 104.9,139.982 102.5,140.5C 101.824,141.602 101.158,142.602 100.5,143.5C 100.884,141.071 101.551,138.737 102.5,136.5C 103.458,136.953 104.292,137.619 105,138.5C 106.599,135.021 109.265,132.688 113,131.5C 115.078,132.943 115.911,132.276 115.5,129.5C 116.833,129.5 118.167,129.5 119.5,129.5 Z"/></g>
<g><path style="opacity:1" fill="#534226" d="M 64.5,133.5 C 67.6434,137.474 66.9767,138.807 62.5,137.5C 62.8432,139.483 62.1765,140.817 60.5,141.5C 60.6633,139.143 60.4966,136.81 60,134.5C 59.5831,133.244 58.7498,132.577 57.5,132.5C 57.5,131.833 57.5,131.167 57.5,130.5C 56.9147,127.739 57.9147,126.073 60.5,125.5C 63.4033,127.306 64.7366,129.973 64.5,133.5 Z"/></g>
<g><path style="opacity:1" fill="#46371d" d="M 37.5,116.5 C 38.1147,122.189 38.948,127.856 40,133.5C 40.9803,134.981 42.147,136.315 43.5,137.5C 43.3764,138.107 43.0431,138.44 42.5,138.5C 41.391,138.443 40.391,138.11 39.5,137.5C 37.5824,134.99 35.2491,133.823 32.5,134C 32.7266,131.631 32.8933,129.131 33,126.5C 33.8261,128.405 34.9928,128.739 36.5,127.5C 34.2181,124.746 33.8847,121.746 35.5,118.5C 35.8333,117.5 36.5,116.833 37.5,116.5 Z"/></g>
<g><path style="opacity:1" fill="#4f4430" d="M 37.5,116.5 C 39.246,122.275 41.0793,128.275 43,134.5C 43.3333,134.833 43.6667,135.167 44,135.5C 44.3076,134.692 44.8076,134.025 45.5,133.5C 46.6868,134.653 47.6868,134.653 48.5,133.5C 50.9653,133.767 53.2986,134.434 55.5,135.5C 55.3379,137.527 55.5045,139.527 56,141.5C 56.6667,142.833 57.3333,142.833 58,141.5C 58.2896,143.044 58.9563,144.377 60,145.5C 60.4643,144.906 60.631,144.239 60.5,143.5C 62.127,144.846 62.7937,146.346 62.5,148C 65.8577,146.78 68.8577,147.447 71.5,150C 70.552,150.483 69.552,150.649 68.5,150.5C 68.5,151.5 68.5,152.5 68.5,153.5C 64.5,153.5 60.5,153.5 56.5,153.5C 53.9723,152.834 51.3056,152.168 48.5,151.5C 50.9913,150.459 50.9913,149.626 48.5,149C 48.8333,148.667 49.1667,148.333 49.5,148C 48.4459,145.618 47.7792,143.118 47.5,140.5C 45.4471,140.598 43.7804,139.931 42.5,138.5C 43.0431,138.44 43.3764,138.107 43.5,137.5C 42.147,136.315 40.9803,134.981 40,133.5C 38.948,127.856 38.1147,122.189 37.5,116.5 Z"/></g>
<g><path style="opacity:1" fill="#74746a" d="M 57.5,132.5 C 58.7498,132.577 59.5831,133.244 60,134.5C 60.4966,136.81 60.6633,139.143 60.5,141.5C 60.5,142.167 60.5,142.833 60.5,143.5C 60.631,144.239 60.4643,144.906 60,145.5C 58.9563,144.377 58.2896,143.044 58,141.5C 57.3333,142.833 56.6667,142.833 56,141.5C 55.5045,139.527 55.3379,137.527 55.5,135.5C 56.9663,136.347 57.7996,137.68 58,139.5C 58.3336,137.153 58.167,134.819 57.5,132.5 Z"/></g>
<g><path style="opacity:1" fill="#898e8b" d="M 85.5,132.5 C 86.6431,132.908 87.6431,133.575 88.5,134.5C 86.3658,136.492 87.0325,137.826 90.5,138.5C 92.8146,138.201 92.8146,137.368 90.5,136C 94.5104,135.643 98.5104,135.81 102.5,136.5C 101.551,138.737 100.884,141.071 100.5,143.5C 99.8333,143.5 99.5,143.833 99.5,144.5C 98.8485,143.909 98.1818,143.243 97.5,142.5C 96.7836,143.311 95.9503,143.978 95,144.5C 89.3809,143.892 85.8809,140.892 84.5,135.5C 84.5639,134.635 84.8973,133.635 85.5,132.5 Z"/></g>
<g><path style="opacity:1" fill="#c2cacb" d="M 71.5,124.5 C 72.8278,126.793 74.1611,129.127 75.5,131.5C 75.6243,132.197 75.6243,133.03 75.5,134C 78.0237,135.69 80.0237,137.857 81.5,140.5C 81,141.5 80.5,142.5 80,143.5C 79.5814,142.328 78.9147,141.328 78,140.5C 77.9188,143.81 76.4188,146.143 73.5,147.5C 72.8243,146.398 72.1577,145.398 71.5,144.5C 70.2196,143.069 68.5529,142.402 66.5,142.5C 67.6784,138.452 67.6784,134.452 66.5,130.5C 67.2998,128.259 68.9664,127.259 71.5,127.5C 71.5,126.5 71.5,125.5 71.5,124.5 Z"/></g>
<g><path style="opacity:1" fill="#d0d9dd" d="M 114.5,136.5 C 115.627,139.857 115.627,143.191 114.5,146.5C 112.401,147.612 110.067,148.279 107.5,148.5C 107.617,146.516 106.95,144.85 105.5,143.5C 103.684,144.735 102.017,144.735 100.5,143.5C 101.158,142.602 101.824,141.602 102.5,140.5C 104.9,139.982 106.9,138.815 108.5,137C 110.61,137.347 112.61,137.18 114.5,136.5 Z"/></g>
<g><path style="opacity:1" fill="#a5aeae" d="M 84.5,135.5 C 85.8809,140.892 89.3809,143.892 95,144.5C 95.9503,143.978 96.7836,143.311 97.5,142.5C 98.1818,143.243 98.8485,143.909 99.5,144.5C 99.6107,145.117 99.944,145.617 100.5,146C 98.3225,147.202 95.9892,147.702 93.5,147.5C 93.5654,147.062 93.3988,146.728 93,146.5C 92.6121,147.428 91.9454,148.095 91,148.5C 89.0218,146.522 87.0218,144.522 85,142.5C 84.8485,139.881 84.0152,137.547 82.5,135.5C 82.9698,134.537 83.6365,134.537 84.5,135.5 Z"/></g>
<g><path style="opacity:1" fill="#6b6351" d="M 66.5,130.5 C 67.6784,134.452 67.6784,138.452 66.5,142.5C 68.5529,142.402 70.2196,143.069 71.5,144.5C 72.3719,147.579 72.3719,150.579 71.5,153.5C 70.5,153.5 69.5,153.5 68.5,153.5C 68.5,152.5 68.5,151.5 68.5,150.5C 69.552,150.649 70.552,150.483 71.5,150C 68.8577,147.447 65.8577,146.78 62.5,148C 62.7937,146.346 62.127,144.846 60.5,143.5C 60.5,142.833 60.5,142.167 60.5,141.5C 62.1765,140.817 62.8432,139.483 62.5,137.5C 66.9767,138.807 67.6434,137.474 64.5,133.5C 65.1667,132.5 65.8333,131.5 66.5,130.5 Z"/></g>
<g><path style="opacity:1" fill="#bcc1be" d="M 100.5,143.5 C 102.017,144.735 103.684,144.735 105.5,143.5C 106.95,144.85 107.617,146.516 107.5,148.5C 110.067,148.279 112.401,147.612 114.5,146.5C 117.781,146.42 120.781,147.087 123.5,148.5C 120.689,148.826 118.022,149.659 115.5,151C 114.402,151.77 114.402,152.603 115.5,153.5C 103.833,153.5 92.1667,153.5 80.5,153.5C 81.1408,152.518 81.8075,151.518 82.5,150.5C 81.4519,148.544 80.9519,146.544 81,144.5C 81.6667,145.167 82.3333,145.833 83,146.5C 84,145.167 85,145.167 86,146.5C 84.7403,149.155 85.5736,150.988 88.5,152C 91.3787,152.874 94.0454,152.54 96.5,151C 95.635,149.641 94.635,148.474 93.5,147.5C 95.9892,147.702 98.3225,147.202 100.5,146C 99.944,145.617 99.6107,145.117 99.5,144.5C 99.5,143.833 99.8333,143.5 100.5,143.5 Z"/></g>
<g><path style="opacity:1" fill="#6c6656" d="M 39.5,137.5 C 40.391,138.11 41.391,138.443 42.5,138.5C 43.7804,139.931 45.4471,140.598 47.5,140.5C 47.7792,143.118 48.4459,145.618 49.5,148C 49.1667,148.333 48.8333,148.667 48.5,149C 50.9913,149.626 50.9913,150.459 48.5,151.5C 51.3056,152.168 53.9723,152.834 56.5,153.5C 53.1667,153.5 49.8333,153.5 46.5,153.5C 45.3176,149.582 44.3176,145.582 43.5,141.5C 41.1917,141.035 39.8584,139.701 39.5,137.5 Z"/></g>
<g><path style="opacity:1" fill="#4a4a47" d="M 34.5,148.5 C 37.1741,149.499 37.8408,151.166 36.5,153.5C 33.5,153.5 30.5,153.5 27.5,153.5C 27.33,152.178 27.6634,151.011 28.5,150C 30.5183,149.495 32.5183,148.995 34.5,148.5 Z"/></g>
<g><path style="opacity:1" fill="#e6eef0" d="M 123.5,148.5 C 126.797,148.632 128.463,150.298 128.5,153.5C 124.167,153.5 119.833,153.5 115.5,153.5C 114.402,152.603 114.402,151.77 115.5,151C 118.022,149.659 120.689,148.826 123.5,148.5 Z"/></g>
</svg>
